<svg width="143" height="44" viewBox="0 0 143 44" fill="none" xmlns="http://www.w3.org/2000/svg">
<g clip-path="url(#clip0_3829_1022)">
<mask id="mask0_3829_1022" style="mask-type:luminance" maskUnits="userSpaceOnUse" x="104" y="0" width="38" height="44">
<path d="M141.524 0.584229H104.211V43.6964H141.524V0.584229Z" fill="white"/>
</mask>
<g mask="url(#mask0_3829_1022)">
<path d="M122.885 0.584229C128.648 0.584229 134.411 0.584229 140.174 0.584229C141.232 0.584229 141.451 0.803072 141.451 1.86082C141.451 11.7817 141.451 21.7391 141.487 31.66C141.487 32.8636 141.122 33.5202 140.065 34.1038C134.593 37.1676 129.159 40.3043 123.688 43.4046C123.068 43.7693 122.557 43.7693 121.937 43.4046C116.284 40.1584 110.63 36.9487 104.94 33.739C104.43 33.4108 104.211 33.046 104.211 32.3895C104.247 22.2133 104.211 12.0735 104.211 1.89729C104.211 0.803071 104.43 0.584229 105.56 0.584229C111.323 0.584229 117.122 0.584229 122.885 0.584229ZM123.688 41.3985C128.758 38.4806 133.791 35.6357 138.934 32.6813C133.828 29.7269 128.794 26.8454 123.688 23.9275C123.688 29.8363 123.688 35.5627 123.688 41.3985ZM121.973 41.3985C121.973 35.5992 121.973 29.9093 121.973 24.1099C116.904 26.9913 111.943 29.8728 106.873 32.7907C111.943 35.6721 116.904 38.5171 121.973 41.3985ZM105.925 10.8699C110.922 8.02491 115.809 5.21642 120.697 2.40792C120.66 2.37145 120.66 2.33498 120.624 2.2985C115.736 2.2985 110.849 2.2985 105.925 2.2985C105.925 5.14347 105.925 7.95196 105.925 10.8699ZM125.037 2.2985C125.037 2.33498 125.001 2.37145 125.001 2.40792C129.888 5.21642 134.776 8.02491 139.736 10.8699C139.736 7.95196 139.736 5.14347 139.736 2.2985C134.812 2.2985 129.925 2.2985 125.037 2.2985ZM114.277 18.5659C111.98 22.5051 109.718 26.4442 107.457 30.3469C107.493 30.3834 107.53 30.4199 107.566 30.4564C112.089 27.8302 116.612 25.2406 121.28 22.578C118.873 21.192 116.575 19.8789 114.277 18.5659ZM130.618 17.2163C128.32 13.2772 126.059 9.37444 123.724 5.32584C123.724 10.724 123.724 15.9033 123.724 21.1555C126.059 19.806 128.32 18.5294 130.618 17.2163ZM139.007 12.3653C134.375 9.73918 129.888 7.14953 125.366 4.55989C125.329 4.59636 125.293 4.63283 125.293 4.66931C127.554 8.57202 129.815 12.4383 132.077 16.3774C134.411 15.0279 136.672 13.7513 139.007 12.3653ZM112.819 17.727C110.484 16.4139 108.259 15.1008 105.925 13.7878C105.925 19.0765 105.925 24.2193 105.925 29.3622C105.961 29.3986 105.998 29.3986 106.034 29.3986C108.296 25.5324 110.521 21.6662 112.819 17.727ZM120.405 4.66931C120.369 4.63283 120.332 4.59636 120.296 4.55989C115.809 7.14953 111.323 9.70271 106.764 12.3288C109.135 13.6784 111.36 14.955 113.657 16.268C115.919 12.4018 118.18 8.53554 120.405 4.66931ZM115.116 17.1069C117.414 18.42 119.639 19.6966 121.937 21.0096C121.937 15.7939 121.937 10.6875 121.937 5.39879C119.603 9.37444 117.378 13.2407 115.116 17.1069ZM139.59 29.3257C139.627 29.3257 139.663 29.2892 139.7 29.2892C139.7 24.1829 139.7 19.113 139.7 13.8972C137.402 15.2103 135.177 16.4869 132.879 17.7999C135.177 21.7026 137.402 25.5324 139.59 29.3257ZM138.022 30.2375C138.058 30.2011 138.095 30.1646 138.131 30.1281C135.907 26.2983 133.718 22.5051 131.457 18.6388C129.159 19.9519 126.934 21.2285 124.636 22.5415C129.195 25.1676 133.609 27.7208 138.022 30.2375Z" fill="#F9FAFB"/>
</g>
<path fill-rule="evenodd" clip-rule="evenodd" d="M0.9375 26.47V17.044L3.15536 14.8262H9.37332L11.5119 16.9648V18.5292H9.61095V17.6381L8.46241 16.4896H4.06628L2.83853 17.7173V25.7967L4.06628 27.0245H8.46241L9.61095 25.8759V24.9848H11.5119V26.5492L9.37332 28.6879H3.15536L0.9375 26.47ZM13.7892 14.8262H23.0964V16.4896H15.6902V20.9055H22.5221V22.5491H15.6902V27.0245H23.0964V28.6879H13.7892V14.8262ZM35.6511 24.3313V28.6879H33.75V24.8066L32.1064 23.0442H27.3737V28.6879H25.4726V14.8262H33.651L35.5719 16.747V21.0639L34.0471 22.5887L35.6511 24.3313ZM27.3737 21.4204H32.7995L33.6906 20.5491V17.3213L32.7995 16.45H27.3737V21.4204ZM41.4136 16.4698H37.2353V14.8262H47.4929V16.4698H43.3146V28.6879H41.4136V16.4698ZM48.9781 26.47V17.044L51.196 14.8262H57.7308L59.9486 17.044V26.47L57.7308 28.6879H51.196L48.9781 26.47ZM56.8199 27.0245L58.0476 25.7967V17.7173L56.8199 16.4896H52.1069L50.8791 17.7173V25.7967L52.1069 27.0245H56.8199ZM72.8994 24.3313V28.6879H70.9984V24.8066L69.3548 23.0442H64.622V28.6879H62.721V14.8262H70.8994L72.8202 16.747V21.0639L71.2954 22.5887L72.8994 24.3313ZM64.622 21.4204H70.0479L70.939 20.5491V17.3213L70.0479 16.45H64.622V21.4204ZM79.553 14.8262H81.4541L86.4442 28.6879H84.4838L83.2561 25.163H77.7708L76.543 28.6879H74.5826L79.553 14.8262ZM82.761 23.559L80.5233 17.0836H80.4837L78.2857 23.559H82.761Z" fill="#F9FAFB"/>
</g>
<defs>
<clipPath id="clip0_3829_1022">
<rect width="142" height="44" fill="white" transform="translate(0.5)"/>
</clipPath>
</defs>
</svg>
