<svg width="93" height="56" viewBox="0 0 93 56" fill="none" xmlns="http://www.w3.org/2000/svg">
<g clip-path="url(#clip0_3829_1003)">
<path d="M41.2249 39.978C41.5392 40.1224 41.7856 40.2158 42.0149 40.3432C43.442 41.0907 44.2319 42.2884 44.2319 43.8854C44.2489 47.6483 42.7454 50.5619 39.2798 52.2777C38.2265 52.7959 37.0967 53.0422 35.933 53.1102C35.7291 53.1186 35.5508 53.0847 35.3724 52.9827C32.7476 51.5472 30.1229 50.1117 27.4897 48.6931C27.2518 48.5657 27.2178 48.4468 27.2943 48.2005C29.4434 41.4815 31.5924 34.7625 33.7415 28.0435C33.8094 27.8311 33.8859 27.7207 34.1492 27.7207C36.7654 27.7547 39.3817 27.6612 41.9979 27.7802C42.7624 27.8141 43.5099 27.967 44.2319 28.2389C46.398 29.0373 47.4767 30.8126 47.2814 33.2505C46.9841 36.8011 45.0898 38.9587 41.3948 39.927C41.3524 39.944 41.3269 39.9525 41.2249 39.978ZM33.8094 49.2877C33.8094 49.2792 33.8094 49.2792 33.8094 49.2707C34.2766 49.2707 34.7438 49.2877 35.211 49.2707C36.2473 49.2283 37.1307 48.8545 37.7763 47.9966C38.5407 46.9688 39.0674 45.8475 39.2882 44.5819C39.5261 43.2398 38.9485 42.3564 37.6234 42.0251C36.638 41.7788 35.6272 41.8637 34.6249 41.8297C34.455 41.8212 34.421 41.9232 34.3785 42.0591C33.631 44.378 32.8835 46.7055 32.1276 49.0244C32.0596 49.2283 32.0936 49.3047 32.3229 49.2962C32.8241 49.2792 33.3168 49.2877 33.8094 49.2877ZM37.0797 38.1857C37.2921 38.1857 37.5044 38.1942 37.7168 38.1857C40.5879 38.1007 42.2782 36.4019 42.2358 33.6412C42.2188 32.6219 41.7601 32.0273 40.7747 31.7895C39.8149 31.5516 38.8296 31.6281 37.8612 31.6196C37.6913 31.6196 37.6573 31.73 37.6234 31.8574C36.9693 33.8876 36.3237 35.9177 35.6612 37.9393C35.5847 38.1772 35.6612 38.1942 35.865 38.1942C36.2558 38.1857 36.672 38.1942 37.0797 38.1857Z" fill="#F9FAFB"/>
<path d="M27.6682 13.8917C28.1099 14.0361 28.4921 14.1381 28.8574 14.274C30.3014 14.8346 30.9385 15.7775 30.913 17.3319C30.896 18.7335 30.4628 20.0586 30.0466 21.3752C29.5879 22.8447 29.0952 24.3057 29.1292 25.8772C29.1292 26.0556 29.0613 26.0811 28.9084 26.0811C27.2095 26.0811 25.5106 26.0726 23.8118 26.0895C23.523 26.0895 23.574 25.9451 23.5909 25.7753C23.7014 24.2293 24.1601 22.7513 24.5763 21.2733C24.8821 20.186 25.2473 19.1157 25.4257 17.9945C25.6635 16.4995 25.2388 15.9304 23.7184 15.7775C22.9539 15.701 22.1894 15.7435 21.4249 15.769C21.204 15.7775 21.1106 15.8709 21.0511 16.0748C20.7878 16.9412 20.499 17.7906 20.2442 18.657C20.1677 18.9119 20.0828 18.9968 19.8025 18.9204C18.3754 18.5211 16.9399 18.1389 15.5044 17.7651C15.241 17.6972 15.2156 17.5953 15.292 17.3574C16.9994 11.9041 18.7067 6.45073 20.4056 0.997395C20.482 0.751061 20.5925 0.683105 20.8473 0.683105C23.0558 0.6916 25.2643 0.674611 27.4728 0.700094C28.8234 0.717083 30.1485 0.937934 31.3802 1.52404C33.1895 2.38196 34.1154 3.8175 34.2258 5.80517C34.3022 7.14726 34.1239 8.46388 33.5887 9.70405C32.4845 12.2438 30.4713 13.5435 27.6682 13.8917ZM22.4017 11.7936C23.3361 11.7936 24.2195 11.7767 25.1029 11.7936C25.9948 11.8106 26.7338 11.4879 27.3284 10.8508C28.3902 9.71254 28.9084 8.32797 29.0188 6.7905C29.1037 5.62679 28.5431 4.96423 27.3879 4.76037C26.513 4.60747 25.6381 4.7094 24.7632 4.67542C24.5253 4.66693 24.5338 4.83682 24.4913 4.97273C24.1855 5.95806 23.8882 6.9434 23.5909 7.92025C23.2087 9.20288 22.8095 10.477 22.4017 11.7936Z" fill="#F9FAFB"/>
<path d="M41.0722 16.6866C42.7626 16.6866 44.368 16.6781 45.9819 16.6951C46.2962 16.6951 46.2707 16.5167 46.2707 16.3129C46.2707 15.0982 46.3047 13.8835 46.3641 12.6603C46.4661 10.5792 46.653 8.5151 46.8823 6.44249C46.9078 6.23013 46.9672 6.17916 47.1711 6.24712C48.5472 6.67183 49.9233 7.08805 51.3078 7.49578C51.5372 7.56374 51.5627 7.69115 51.5542 7.89501C51.5202 9.23711 51.4947 10.5792 51.4607 11.9298C51.3503 16.5677 51.2399 21.2141 51.1379 25.852C51.1294 26.1578 51.019 26.1832 50.7642 26.1832C49.2097 26.1747 47.6468 26.1747 46.0923 26.1832C45.795 26.1832 45.7186 26.1153 45.7356 25.8095C45.812 24.255 45.8545 22.7006 45.9309 21.1461C45.9479 20.8233 45.8885 20.7129 45.5402 20.7214C43.5016 20.7384 41.4629 20.7384 39.4243 20.7299C39.161 20.7299 39.0251 20.8148 38.9062 21.0442C38.0652 22.6581 37.2073 24.2635 36.3664 25.8774C36.2729 26.0473 36.205 26.1747 35.9671 26.1747C34.2088 26.1662 32.459 26.1662 30.7007 26.1662C30.6157 26.0133 30.7431 25.9284 30.8026 25.8265C34.676 18.9461 38.5494 12.0657 42.4143 5.18533C42.5502 4.94749 42.6691 4.87954 42.9324 4.96448C43.9433 5.28726 44.9541 5.59306 45.9734 5.88186C46.2622 5.96681 46.2962 6.06024 46.1688 6.33206C44.6653 9.67882 43.0259 12.9661 41.3185 16.2109C41.2421 16.3468 41.1741 16.4827 41.0722 16.6866Z" fill="#F9FAFB"/>
<path d="M48.3772 42.0592C48.4027 42.0592 48.3263 42.0507 48.2583 42.0677C47.995 42.1101 47.944 42.0337 48.029 41.7789C48.5046 40.3603 48.9463 38.9333 49.422 37.5147C52.4885 28.4173 55.1642 19.201 57.8993 10.0102C58.0098 9.64492 58.1287 9.58546 58.4769 9.69589C59.9804 10.1716 61.5009 10.6303 63.0129 11.0635C63.3527 11.1654 63.2422 11.3268 63.1828 11.5307C61.1017 18.0968 59.0206 24.6543 56.9395 31.2204C55.8777 34.5672 54.8074 37.914 53.7541 41.2692C53.6692 41.541 53.5587 41.6854 53.2445 41.7024C51.6645 41.8043 50.0676 41.9318 48.3772 42.0592Z" fill="#F9FAFB"/>
<path d="M7.21383 4.94769C5.14971 4.94769 3.11958 4.94769 1.02148 4.94769C1.19987 4.38707 1.36126 3.86042 1.53114 3.32528C1.76049 2.58627 2.00682 1.84727 2.21918 1.09977C2.29563 0.819461 2.43154 0.743012 2.72034 0.743012C5.73582 0.751506 8.7513 0.743012 11.7583 0.734518C14.1367 0.734518 16.5151 0.734518 18.8935 0.717529C19.2078 0.717529 19.3097 0.751506 19.1993 1.09977C18.8085 2.26349 18.4433 3.4357 18.095 4.60792C18.0186 4.87124 17.8912 4.93919 17.6278 4.93919C16.0819 4.92221 14.5444 4.93919 12.9984 4.9307C12.7011 4.9307 12.5652 5.00715 12.4803 5.30445C11.4185 8.75313 10.3397 12.2018 9.26945 15.659C9.1845 15.9393 9.09956 16.0667 8.75979 15.9648C7.35823 15.5656 5.95667 15.1833 4.54662 14.8351C4.20685 14.7501 4.17287 14.6397 4.26631 14.3339C5.22616 11.3354 6.16903 8.33691 7.1119 5.32993C7.14587 5.21951 7.17136 5.09209 7.21383 4.94769Z" fill="#F9FAFB"/>
<path d="M79.8403 41.3373C80.316 41.2948 80.7917 41.2523 81.2589 41.2184C82.7793 41.1249 84.2998 41.04 85.8203 40.9296C86.1176 40.9126 86.313 41.0145 86.5168 41.2269C87.9779 42.6879 88.3771 44.4462 87.9863 46.4084C87.6126 48.2686 86.8311 49.959 85.7014 51.4625C84.6226 52.898 83.1276 53.722 81.3523 54.0447C79.2202 54.427 77.0882 54.4949 74.9731 53.9343C73.1638 53.4501 71.8132 52.4393 71.363 50.5111C71.1252 49.4833 71.2101 48.4555 71.4565 47.4447C71.5839 46.935 71.7622 46.4508 71.9151 45.9497C71.9661 45.7798 72.0511 45.6864 72.2464 45.6864C73.9877 45.6864 75.7206 45.6864 77.5214 45.6864C77.292 46.1875 77.0882 46.6462 76.9777 47.1474C76.8673 47.674 76.7569 48.1922 76.8418 48.7358C77.0117 49.8486 77.8442 50.5026 78.9739 50.3667C80.9106 50.1374 82.8133 48.1582 82.8473 46.23C82.8643 45.0748 82.4141 44.03 81.6921 43.1126C81.2419 42.5435 80.6982 42.0763 80.1121 41.6516C80.0187 41.5751 79.8828 41.5242 79.8403 41.3373Z" fill="#F9FAFB"/>
<path d="M77.6656 27.8142C77.4532 28.4768 77.2494 29.1393 77.037 29.7934C76.8416 30.4135 76.6293 31.025 76.4594 31.6536C76.383 31.9339 76.247 31.9934 75.9837 31.9934C74.4378 31.9849 72.9003 31.9934 71.3543 31.9764C71.0485 31.9764 70.9211 32.0698 70.8277 32.3586C69.9867 35.0768 69.1118 37.795 68.2794 40.5132C68.1775 40.8529 68.0246 40.9719 67.6763 40.9889C66.1473 41.0738 64.6268 41.1757 63.1064 41.3031C62.7411 41.3286 62.7241 41.2352 62.8176 40.9209C63.7095 38.0923 64.5759 35.2637 65.4678 32.4351C65.5782 32.0868 65.5697 31.9594 65.1365 31.9679C63.3527 31.9934 61.5689 31.9679 59.7851 31.9849C59.4283 31.9849 59.3944 31.9 59.4963 31.5772C59.887 30.4135 60.2523 29.2412 60.609 28.069C60.6685 27.8652 60.745 27.7717 60.9743 27.7717C66.4786 27.7802 71.9829 27.7802 77.4872 27.7802C77.5382 27.7802 77.5806 27.7972 77.6656 27.8142Z" fill="#F9FAFB"/>
<path d="M85.3187 39.6978C84.1805 39.7742 83.1442 39.8507 82.0994 39.9186C81.0376 39.9866 79.9843 40.046 78.9225 40.131C78.6762 40.148 78.4808 40.1055 78.2854 39.9696C77.2491 39.2306 76.5866 38.2028 76.5271 36.9626C76.4082 34.4823 77.0453 32.1973 78.7102 30.2861C79.8824 28.9355 81.3774 28.1286 83.1187 27.7633C85.1658 27.3386 87.2045 27.432 89.1751 28.137C90.7211 28.6892 91.8678 29.666 92.2756 31.3394C92.4285 31.9765 92.4539 32.622 92.3265 33.2761C92.1736 34.0406 91.9528 34.7796 91.6979 35.5186C91.63 35.7225 91.5196 35.7904 91.2987 35.7904C89.7697 35.7819 88.2408 35.7819 86.7118 35.7904C86.4315 35.7904 86.4145 35.7055 86.4994 35.4676C86.6778 34.9495 86.8817 34.4398 87.0006 33.8962C87.0855 33.5054 87.1025 33.1062 87.0431 32.7155C86.9581 32.1548 86.6438 31.7726 86.0917 31.5857C84.8006 31.161 83.5859 31.5602 82.8979 32.7325C82.0399 34.1765 81.8615 35.629 82.9658 37.073C83.6538 37.9904 84.3928 38.8568 85.3187 39.6978Z" fill="#F9FAFB"/>
<path d="M68.0585 26.1322C66.0793 26.1322 64.1002 26.1237 62.1125 26.1407C61.7387 26.1407 61.7387 26.0388 61.8322 25.7415C63.2507 21.2905 64.6608 16.8395 66.0538 12.3885C66.1473 12.0912 66.2492 12.0317 66.5465 12.1251C67.9566 12.5753 69.3751 13.0085 70.8022 13.4163C71.1249 13.5097 71.1844 13.6031 71.0825 13.9259C70.2585 16.4742 69.4601 19.031 68.6361 21.5878C68.5172 21.9615 68.5936 22.021 68.9674 22.0125C71.074 21.9955 73.1806 22.004 75.2956 21.987C75.6949 21.987 75.7288 22.0805 75.6099 22.4372C75.2192 23.5585 74.8539 24.6882 74.4972 25.8179C74.4207 26.0643 74.3103 26.1407 74.0555 26.1407C72.0593 26.1322 70.0632 26.1322 68.067 26.1322C68.0585 26.1152 68.0585 26.1237 68.0585 26.1322Z" fill="#F9FAFB"/>
<path d="M67.2258 42.3481C67.6675 42.2631 67.744 42.3736 67.6421 42.6963C66.954 44.8624 66.283 47.0284 65.6119 49.1945C65.5525 49.3814 65.4505 49.4663 65.2721 49.5258C63.5138 50.0439 61.7555 50.5621 59.9972 51.0887C59.8868 51.1227 59.7763 51.1991 59.6744 51.1227C59.5555 51.0293 59.6659 50.9103 59.6999 50.8169C60.5153 48.2176 61.3393 45.6269 62.1547 43.0276C62.2142 42.8323 62.2737 42.6794 62.537 42.6624C64.1339 42.5519 65.7393 42.4415 67.2258 42.3481Z" fill="#F9FAFB"/>
<path d="M73.7072 5.66956C73.5712 6.10277 73.4353 6.53598 73.3079 6.9607C72.7898 8.61709 72.2716 10.2735 71.7705 11.9384C71.694 12.1932 71.6091 12.2696 71.3288 12.1847C69.8762 11.726 68.4152 11.2928 66.9542 10.8596C66.6994 10.7831 66.6739 10.6812 66.7503 10.4349C67.4044 8.37925 68.0415 6.31513 68.6785 4.25102C68.8229 3.79233 68.9758 3.33363 69.1032 2.87494C69.1627 2.65409 69.2476 2.60312 69.4515 2.73903C70.8106 3.63093 72.1697 4.51434 73.5288 5.40624C73.6137 5.4742 73.7241 5.53366 73.7072 5.66956Z" fill="#F9FAFB"/>
<path d="M15.1729 26.3447C14.3915 26.3447 13.6185 26.3363 12.837 26.3532C12.5142 26.3617 12.4548 26.2768 12.5567 25.971C13.3042 23.72 14.0432 21.469 14.7652 19.2095C14.8332 18.9887 14.9266 18.9717 15.1305 19.0227C16.6 19.4219 18.0695 19.8211 19.539 20.2034C19.7684 20.2628 19.7514 20.3563 19.7004 20.5262C19.1058 22.3779 18.5112 24.2382 17.9421 26.0984C17.8656 26.3363 17.7382 26.3617 17.5429 26.3617C16.7529 26.3532 15.9629 26.3532 15.1729 26.3447C15.1729 26.3532 15.1729 26.3532 15.1729 26.3447Z" fill="#F9FAFB"/>
<path d="M51.8003 1.98414C51.8003 4.38282 51.7324 5.87365 51.7324 5.87365C51.7324 6.20493 51.639 6.2474 51.3332 6.15396C48.6999 5.347 46.0667 4.55703 43.4335 3.77556C43.0852 3.67363 43.0427 3.5632 43.2381 3.2744C43.4335 2.98559 43.5703 2.66808 43.7393 2.34852C43.9884 1.87725 44.2659 1.66897 44.7756 1.57554C47.0096 1.15932 49.2266 0.709122 51.4521 0.25043C51.7579 0.19097 51.8088 0.230483 51.8088 0.539236C51.8088 0.976683 51.8003 1.81338 51.8003 1.81338C51.8003 1.51805 51.8003 1.92199 51.8003 1.98414Z" fill="#F9FAFB"/>
<path d="M6.39862 24.9176C5.28587 23.7539 4.26655 22.5817 3.12832 21.5199C2.46576 20.8998 2.38931 20.3562 2.69511 19.5492C3.10283 18.5044 3.37465 17.4002 3.69744 16.3214C3.7569 16.1175 3.83334 16.0666 4.0542 16.126C5.52371 16.5338 6.99322 16.9245 8.46274 17.3152C8.64961 17.3662 8.76853 17.3832 8.69208 17.638C7.94458 20.0079 7.22257 22.3778 6.48356 24.7477C6.46658 24.7902 6.44109 24.8242 6.39862 24.9176Z" fill="#F9FAFB"/>
<path d="M22.2658 35.8158C21.96 35.7819 21.6457 35.7734 21.3399 35.7139C20.1337 35.4676 19.607 34.7625 19.8958 33.5818C20.2356 32.1888 20.6264 30.7957 21.2549 29.4961C21.9939 27.9501 24.1005 27.381 25.587 28.2729C26.1731 28.6297 26.411 29.1733 26.3005 29.8274C26.0202 31.4158 25.4936 32.9448 24.848 34.4143C24.3978 35.4336 23.6248 35.8073 22.2658 35.8158ZM22.2063 34.6266C22.8434 34.6096 23.1831 34.3293 23.3615 33.8791C23.8712 32.5965 24.2959 31.2799 24.6357 29.9378C24.7631 29.4281 24.4148 29.0629 23.8882 29.0714C23.319 29.0799 22.9538 29.3941 22.7584 29.8868C22.2912 31.0505 21.9175 32.2482 21.5777 33.4544C21.5437 33.5733 21.5352 33.7092 21.5352 33.8367C21.5352 34.3463 21.8241 34.6266 22.2063 34.6266Z" fill="#F9FAFB"/>
<path d="M34.0131 53.8321C32.3737 54.07 30.7598 54.3078 29.1459 54.5372C27.8632 54.724 26.5721 54.8769 25.2895 55.0893C24.9072 55.1488 24.9582 55.0298 25.0431 54.775C25.5698 53.2121 26.0879 51.6406 26.6061 50.0692C26.674 49.8653 26.7335 49.7634 26.9798 49.8993C29.2903 51.1819 31.6092 52.4561 33.9282 53.7302C33.9536 53.7302 33.9706 53.7727 34.0131 53.8321Z" fill="#F9FAFB"/>
<path d="M25.4937 35.697C25.9863 34.0916 26.4705 32.5371 26.9547 30.9742C27.235 30.0738 27.5153 29.1734 27.7871 28.2645C27.8551 28.0436 27.9315 27.9162 28.2118 27.9247C29.3246 27.9417 30.4458 27.9417 31.5671 27.9247C31.8304 27.9247 31.9153 27.9587 31.8219 28.2475C31.5246 29.1904 31.5331 29.1989 30.5223 29.1989C30.1655 29.1989 29.8172 29.1989 29.4605 29.1989C29.2906 29.1989 29.1717 29.2243 29.1207 29.4197C29.0018 29.8529 28.8489 30.2776 28.713 30.7108C28.679 30.8128 28.6535 30.9232 28.6111 31.0846C29.2566 31.0846 29.8682 31.0931 30.4798 31.0761C30.7431 31.0676 30.7856 31.1441 30.7176 31.3904C30.4458 32.3502 30.4543 32.3502 29.4435 32.3587C29.0358 32.3587 28.5261 32.1889 28.2458 32.4267C27.991 32.6475 27.974 33.1487 27.8551 33.5225C27.6597 34.1425 27.4558 34.7541 27.2775 35.3827C27.2095 35.6121 27.1246 35.7055 26.8782 35.697C26.428 35.68 25.9778 35.697 25.4937 35.697Z" fill="#F9FAFB"/>
</g>
<defs>
<clipPath id="clip0_3829_1003">
<rect width="92" height="56" fill="white" transform="translate(0.5)"/>
</clipPath>
</defs>
</svg>
