<svg width="171" height="28" viewBox="0 0 171 28" fill="none" xmlns="http://www.w3.org/2000/svg">
<g clip-path="url(#clip0_3829_1030)">
<mask id="mask0_3829_1030" style="mask-type:luminance" maskUnits="userSpaceOnUse" x="0" y="0" width="171" height="28">
<path d="M170.5 0.0512695H0.5V27.0513H170.5V0.0512695Z" fill="white"/>
</mask>
<g mask="url(#mask0_3829_1030)">
<path d="M24.3596 26.8934V19.9343H16.8559C14.8153 19.9343 12.9251 21.0162 11.8799 22.7825L9.44727 26.8934H24.3596Z" fill="white"/>
<path d="M0.5 0.0512695V7.01033H20.2454L24.3596 0.0512695H0.5Z" fill="white"/>
<path d="M10.2095 11.1046L0.5 26.8933H8.77224L20.383 8.00439H15.8151C13.5174 8.00439 11.3888 9.18166 10.2095 11.1046Z" fill="white"/>
<path d="M41.3304 20.7225C37.281 20.7225 34.3013 17.7349 34.3013 13.7259C34.3013 9.75534 37.3001 6.72927 41.3495 6.72927C45.3988 6.72927 48.3976 9.79389 48.3976 13.7259C48.3976 17.6964 45.3797 20.7225 41.3304 20.7225ZM41.3495 18.2746C43.909 18.2746 45.7426 16.3472 45.7426 13.7259C45.7426 11.1431 43.909 9.17711 41.3495 9.17711C38.7709 9.17711 36.9372 11.1431 36.9372 13.7259C36.9372 16.3472 38.7709 18.2746 41.3495 18.2746ZM51.1092 24.905V10.3336H53.5541V11.625H53.6878C53.9552 11.2009 54.872 10.083 56.7057 10.083C59.5135 10.083 61.4426 12.2032 61.4426 15.3642C61.4426 18.5252 59.5326 20.7225 56.7821 20.7225C55.0057 20.7225 54.0507 19.7202 53.726 19.1612H53.5923V24.905H51.1092ZM56.2282 18.4481C57.8326 18.4481 58.9214 17.1953 58.9214 15.4027C58.9214 13.5524 57.8326 12.3574 56.2091 12.3574C54.5664 12.3574 53.535 13.6873 53.535 15.4027C53.535 17.2916 54.681 18.4481 56.2282 18.4481ZM68.5474 20.7225C65.5868 20.7225 63.4857 18.4866 63.4857 15.4606C63.4857 12.261 65.6059 10.083 68.5474 10.083C71.7754 10.083 73.5326 12.4923 73.5326 15.3449V16.1352H65.8924C65.9688 17.6771 67.0193 18.7179 68.6238 18.7179C69.8462 18.7179 70.7821 18.1397 71.1259 17.3109H73.4371C72.9405 19.3733 71.1451 20.7225 68.5474 20.7225ZM65.9306 14.3619H71.1641C71.0495 12.9934 69.999 12.0875 68.5474 12.0875C67.153 12.0875 66.0834 13.0898 65.9306 14.3619ZM76.206 20.4719V10.3336H78.5745V11.5671H78.7082C79.1093 10.8154 80.1025 10.083 81.5351 10.083C83.789 10.083 85.1642 11.6828 85.1642 13.8415V20.4719H82.6811V14.4968C82.6811 13.2633 81.898 12.4345 80.752 12.4345C79.5486 12.4345 78.6891 13.3982 78.6891 14.6703V20.4719H76.206ZM87.6275 20.4719V18.1782L94.5801 9.33131V9.19639H87.8758V6.97983H97.7508V9.25421L90.7982 18.1011V18.2553H97.789V20.4719H87.6275ZM104.512 20.7225C101.551 20.7225 99.4501 18.4866 99.4501 15.4606C99.4501 12.261 101.57 10.083 104.512 10.083C107.74 10.083 109.497 12.4923 109.497 15.3449V16.1352H101.857C101.933 17.6771 102.983 18.7179 104.588 18.7179C105.81 18.7179 106.746 18.1397 107.09 17.3109H109.401C108.905 19.3733 107.109 20.7225 104.512 20.7225ZM101.895 14.3619H107.128C107.014 12.9934 105.963 12.0875 104.512 12.0875C103.117 12.0875 102.048 13.0898 101.895 14.3619ZM112.17 24.905V10.3336H114.615V11.625H114.749C115.016 11.2009 115.933 10.083 117.767 10.083C120.574 10.083 122.504 12.2032 122.504 15.3642C122.504 18.5252 120.594 20.7225 117.843 20.7225C116.067 20.7225 115.112 19.7202 114.787 19.1612H114.653V24.905H112.17ZM117.289 18.4481C118.894 18.4481 119.982 17.1953 119.982 15.4027C119.982 13.5524 118.894 12.3574 117.27 12.3574C115.627 12.3574 114.596 13.6873 114.596 15.4027C114.596 17.2916 115.742 18.4481 117.289 18.4481ZM125.177 24.905V10.3336H127.622V11.625H127.756C128.023 11.2009 128.94 10.083 130.773 10.083C133.581 10.083 135.51 12.2032 135.51 15.3642C135.51 18.5252 133.6 20.7225 130.85 20.7225C129.074 20.7225 128.118 19.7202 127.794 19.1612H127.66V24.905H125.177ZM130.296 18.4481C131.9 18.4481 132.989 17.1953 132.989 15.4027C132.989 13.5524 131.9 12.3574 130.277 12.3574C128.634 12.3574 127.603 13.6873 127.603 15.4027C127.603 17.2916 128.749 18.4481 130.296 18.4481ZM142.615 20.7225C139.655 20.7225 137.554 18.4866 137.554 15.4606C137.554 12.261 139.674 10.083 142.615 10.083C145.843 10.083 147.6 12.4923 147.6 15.3449V16.1352H139.96C140.037 17.6771 141.087 18.7179 142.692 18.7179C143.914 18.7179 144.85 18.1397 145.194 17.3109H147.505C147.008 19.3733 145.213 20.7225 142.615 20.7225ZM139.998 14.3619H145.232C145.117 12.9934 144.067 12.0875 142.615 12.0875C141.221 12.0875 140.151 13.0898 139.998 14.3619ZM152.719 20.4719C150.961 20.4719 149.968 19.4118 149.968 17.6193V6.01611H152.451V17.388C152.451 17.9662 152.738 18.2746 153.254 18.2746H153.655V20.4719H152.719ZM157.283 8.98437C156.385 8.98437 155.755 8.42541 155.755 7.51951C155.755 6.65217 156.385 6.07394 157.283 6.07394C158.181 6.07394 158.811 6.65217 158.811 7.51951C158.811 8.42541 158.181 8.98437 157.283 8.98437ZM156.042 20.4719V10.3336H158.525V20.4719H156.042ZM161.542 20.4719V10.3336H163.91V11.5671H164.044C164.445 10.8154 165.438 10.083 166.871 10.083C169.125 10.083 170.5 11.6828 170.5 13.8415V20.4719H168.017V14.4968C168.017 13.2633 167.234 12.4345 166.088 12.4345C164.884 12.4345 164.025 13.3982 164.025 14.6703V20.4719H161.542Z" fill="white"/>
</g>
</g>
<defs>
<clipPath id="clip0_3829_1030">
<rect width="170" height="28" fill="white" transform="translate(0.5)"/>
</clipPath>
</defs>
</svg>
