<svg width="32" height="32" viewBox="0 0 32 32" fill="none" xmlns="http://www.w3.org/2000/svg">
<path fill-rule="evenodd" clip-rule="evenodd" d="M10.71 2H2.62056C2.27689 2 1.99829 2.2786 1.99829 2.62226V10.7117C1.99829 11.0554 2.27689 11.334 2.62056 11.334H10.71C11.0536 11.334 11.3322 11.0554 11.3322 10.7117V2.62226C11.3322 2.2786 11.0536 2 10.71 2ZM20.0485 11.3358H11.9591C11.6154 11.3358 11.3368 11.6144 11.3368 11.958V20.0474C11.3368 20.3911 11.6154 20.6697 11.9591 20.6697H20.0485C20.3922 20.6697 20.6708 20.3911 20.6708 20.0474V11.958C20.6708 11.6144 20.3922 11.3358 20.0485 11.3358ZM21.2898 2H29.3792C29.7229 2 30.0015 2.2786 30.0015 2.62226V10.7117C30.0015 11.0554 29.7229 11.334 29.3792 11.334H21.2898C20.9461 11.334 20.6675 11.0554 20.6675 10.7117V2.62226C20.6675 2.2786 20.9461 2 21.2898 2ZM10.7101 20.666H2.62065C2.27698 20.666 1.99839 20.9446 1.99839 21.2883V29.3777C1.99839 29.7214 2.27698 30 2.62065 30H10.7101C11.0537 30 11.3323 29.7214 11.3323 29.3777V21.2883C11.3323 20.9446 11.0537 20.666 10.7101 20.666ZM21.2898 20.666H29.3792C29.7229 20.666 30.0015 20.9446 30.0015 21.2883V29.3777C30.0015 29.7214 29.7229 30 29.3792 30H21.2898C20.9461 30 20.6675 29.7214 20.6675 29.3777V21.2883C20.6675 20.9446 20.9461 20.666 21.2898 20.666Z" fill="white"/>
</svg>
