<svg width="28" height="29" viewBox="0 0 28 29" fill="none" xmlns="http://www.w3.org/2000/svg">
    <circle cx="13.8521" cy="14.6956" r="13.8345" fill="#3095FE"/>
    <path d="M8.86391 11.7539C11.7002 8.9777 16.2995 8.9777 19.1358 11.7539L19.4773 12.0879C19.511 12.1205 19.5378 12.1596 19.5561 12.2027C19.5743 12.2459 19.5838 12.2923 19.5838 12.3392C19.5838 12.3861 19.5743 12.4325 19.5561 12.4757C19.5378 12.5188 19.511 12.5579 19.4773 12.5905L18.3096 13.7334C18.2751 13.7668 18.229 13.7854 18.1811 13.7854C18.1331 13.7854 18.087 13.7668 18.0526 13.7334L17.5829 13.2735C15.6043 11.3372 12.3959 11.3372 10.4169 13.2735L9.91379 13.7658C9.87935 13.7992 9.83327 13.8179 9.78531 13.8179C9.73735 13.8179 9.69128 13.7992 9.65684 13.7658L8.48905 12.6229C8.45538 12.5903 8.42861 12.5512 8.41033 12.5081C8.39205 12.4649 8.38263 12.4185 8.38263 12.3716C8.38263 12.3247 8.39205 12.2783 8.41033 12.2352C8.42861 12.192 8.45538 12.1529 8.48905 12.1203L8.86391 11.7539ZM21.5513 14.1172L22.5903 15.1347C22.624 15.1673 22.6508 15.2063 22.6691 15.2495C22.6873 15.2927 22.6968 15.3391 22.6968 15.386C22.6968 15.4329 22.6873 15.4793 22.6691 15.5224C22.6508 15.5656 22.624 15.6047 22.5903 15.6373L17.9042 20.2239C17.8353 20.2907 17.7432 20.3282 17.6472 20.3282C17.5513 20.3282 17.4591 20.2907 17.3903 20.2239L14.0645 16.9685C14.0473 16.9517 14.0242 16.9423 14.0001 16.9423C13.9761 16.9423 13.953 16.9517 13.9358 16.9685L10.61 20.2239C10.5411 20.2907 10.449 20.3282 10.353 20.3282C10.257 20.3282 10.1649 20.2907 10.096 20.2239L5.4094 15.6373C5.37573 15.6047 5.34896 15.5656 5.33068 15.5224C5.3124 15.4793 5.30298 15.4329 5.30298 15.386C5.30298 15.3391 5.3124 15.2927 5.33068 15.2495C5.34896 15.2063 5.37573 15.1673 5.4094 15.1347L6.44894 14.1172C6.51774 14.0505 6.60982 14.0132 6.70566 14.0132C6.8015 14.0132 6.89357 14.0505 6.96237 14.1172L10.2882 17.3725C10.3054 17.3893 10.3285 17.3988 10.3525 17.3988C10.3766 17.3988 10.3997 17.3893 10.4169 17.3725L13.7427 14.1172C13.8115 14.0503 13.9037 14.0129 13.9996 14.0129C14.0956 14.0129 14.1878 14.0503 14.2566 14.1172L17.5829 17.3725C17.6001 17.3893 17.6232 17.3988 17.6472 17.3988C17.6713 17.3988 17.6944 17.3893 17.7116 17.3725L21.0374 14.1172C21.1062 14.0503 21.1984 14.0129 21.2943 14.0129C21.3903 14.0129 21.4824 14.0503 21.5513 14.1172Z" fill="white"/>
</svg>
