<svg width="24" height="25" viewBox="0 0 24 25" fill="none" xmlns="http://www.w3.org/2000/svg">
    <g clip-path="url(#clip0_3022_1880)">
        <path fill-rule="evenodd" clip-rule="evenodd" d="M3 0.0976562H21C22.654 0.0976562 24 1.44266 24 3.09766V21.0977C24 22.7517 22.654 24.0977 21 24.0977H16.5V15.8477H18.75L20.25 12.0977H16.5V9.09766C16.5 8.33658 17.0678 8.34097 17.8026 8.34665C17.8672 8.34715 17.9331 8.34766 18 8.34766H19.5V4.59766H16.5C14.014 4.59766 12 6.61166 12 9.09766V12.0977H9V15.8477H12V24.0977H3C1.345 24.0977 0 22.7517 0 21.0977V3.09766C0 1.44266 1.345 0.0976562 3 0.0976562Z" fill="#C5C5C9" />
    </g>
    <defs>
        <clipPath id="clip0_3022_1880">
            <rect width="24" height="24" fill="white" transform="translate(0 0.0976562)" />
        </clipPath>
    </defs>
</svg>