<svg width="24" height="25" viewBox="0 0 24 25" fill="none" xmlns="http://www.w3.org/2000/svg">
    <g clip-path="url(#clip0_3022_1882)">
        <path fill-rule="evenodd" clip-rule="evenodd" d="M16.5 0.0976562H7.5C3.3585 0.0976562 0 3.45616 0 7.59766V16.5977C0 20.7392 3.3585 24.0977 7.5 24.0977H16.5C20.6415 24.0977 24 20.7392 24 16.5977V7.59766C24 3.45616 20.6415 0.0976562 16.5 0.0976562ZM21.75 16.5977C21.75 19.4927 19.395 21.8477 16.5 21.8477H7.5C4.605 21.8477 2.25 19.4927 2.25 16.5977V7.59766C2.25 4.70266 4.605 2.34766 7.5 2.34766H16.5C19.395 2.34766 21.75 4.70266 21.75 7.59766V16.5977ZM12 6.09766C8.6865 6.09766 6 8.78416 6 12.0977C6 15.4112 8.6865 18.0977 12 18.0977C15.3135 18.0977 18 15.4112 18 12.0977C18 8.78416 15.3135 6.09766 12 6.09766ZM12 15.8477C9.933 15.8477 8.25 14.1647 8.25 12.0977C8.25 10.0292 9.933 8.34766 12 8.34766C14.067 8.34766 15.75 10.0292 15.75 12.0977C15.75 14.1647 14.067 15.8477 12 15.8477ZM19.2494 5.64764C19.2494 6.08919 18.8914 6.44714 18.4499 6.44714C18.0083 6.44714 17.6504 6.08919 17.6504 5.64764C17.6504 5.20609 18.0083 4.84814 18.4499 4.84814C18.8914 4.84814 19.2494 5.20609 19.2494 5.64764Z" fill="#C5C5C9" />
    </g>
    <defs>
        <clipPath id="clip0_3022_1882">
            <rect width="24" height="24" fill="white" transform="translate(0 0.0976562)" />
        </clipPath>
    </defs>
</svg>