<svg width="24" height="25" viewBox="0 0 24 25" fill="none" xmlns="http://www.w3.org/2000/svg">
    <g clip-path="url(#clip0_3022_1886)">
        <path fill-rule="evenodd" clip-rule="evenodd" d="M0 2.97966C0 1.38866 1.291 0.0976562 2.882 0.0976562C4.472 0.0976562 5.763 1.38866 5.764 2.97966C5.764 4.57066 4.473 5.88866 2.882 5.88866C1.291 5.88866 0 4.57066 0 2.97966ZM23.994 24.0976V24.0966H24V15.2946C24 10.9886 23.073 7.67163 18.039 7.67163C15.619 7.67163 13.995 8.99963 13.332 10.2586H13.262V8.07363H8.48901V24.0966H13.459V16.1626C13.459 14.0736 13.855 12.0536 16.442 12.0536C18.991 12.0536 19.029 14.4376 19.029 16.2966V24.0976H23.994ZM0.395996 8.07471H5.372V24.0977H0.395996V8.07471Z" fill="#C5C5C9" />
    </g>
    <defs>
        <clipPath id="clip0_3022_1886">
            <rect width="24" height="24" fill="white" transform="translate(0 0.0976562)" />
        </clipPath>
    </defs>
</svg>