<svg width="24" height="25" viewBox="0 0 24 25" fill="none" xmlns="http://www.w3.org/2000/svg">
    <g clip-path="url(#clip0_3022_1884)">
        <path d="M24 4.65616C23.1075 5.04766 22.1565 5.30716 21.165 5.43316C22.185 4.82416 22.9635 3.86716 23.3295 2.71366C22.3785 3.28066 21.3285 3.68116 20.2095 3.90466C19.3065 2.94316 18.0195 2.34766 16.6155 2.34766C13.8915 2.34766 11.6985 4.55866 11.6985 7.26916C11.6985 7.65916 11.7315 8.03416 11.8125 8.39116C7.722 8.19166 4.1025 6.23116 1.671 3.24466C1.2465 3.98116 0.9975 4.82416 0.9975 5.73166C0.9975 7.43566 1.875 8.94616 3.183 9.82066C2.3925 9.80566 1.617 9.57616 0.96 9.21466C0.96 9.22966 0.96 9.24916 0.96 9.26866C0.96 11.6597 2.6655 13.6457 4.902 14.1032C4.5015 14.2127 4.065 14.2652 3.612 14.2652C3.297 14.2652 2.979 14.2472 2.6805 14.1812C3.318 16.1297 5.127 17.5622 7.278 17.6087C5.604 18.9182 3.4785 19.7072 1.1775 19.7072C0.774 19.7072 0.387 19.6892 0 19.6397C2.1795 21.0452 4.7625 21.8477 7.548 21.8477C16.602 21.8477 21.552 14.3477 21.552 7.84666C21.552 7.62916 21.5445 7.41916 21.534 7.21066C22.5105 6.51766 23.331 5.65216 24 4.65616Z" fill="#C5C5C9" />
    </g>
    <defs>
        <clipPath id="clip0_3022_1884">
            <rect width="24" height="24" fill="white" transform="translate(0 0.0976562)" />
        </clipPath>
    </defs>
</svg>