<svg width="16" height="17" viewBox="0 0 16 17" fill="none" xmlns="http://www.w3.org/2000/svg">
<rect y="0.87207" width="16" height="16" rx="8" fill="#0E0C15"/>
<path fill-rule="evenodd" clip-rule="evenodd" d="M4.62556 11.5605C4.38453 11.4176 4.2417 11.1498 4.2417 10.8731V9.31084C4.2417 9.24835 4.25955 9.19479 4.28633 9.14123C4.37561 8.98054 4.58986 8.92698 4.74162 9.01625L8.26782 11.0695C8.47314 11.1945 8.59812 11.4087 8.59812 11.6497V13.2655C8.59812 13.337 8.58027 13.4173 8.53563 13.4798C8.41958 13.6673 8.16962 13.7298 7.98215 13.6137L4.62556 11.5605ZM9.88362 8.58775C10.0889 8.71273 10.2139 8.92698 10.2139 9.16801V12.4532C10.2139 12.5514 10.1604 12.6406 10.08 12.6853L9.30336 13.1227C9.29444 13.1316 9.28551 13.1316 9.27658 13.1316V11.3105C9.27658 11.0784 9.1516 10.8552 8.94628 10.7303L5.84858 8.87341V6.82018C5.84858 6.75769 5.86643 6.70413 5.89321 6.65057C5.98248 6.48988 6.19673 6.43632 6.34849 6.52559L9.88362 8.58775ZM11.428 6.1685C11.6333 6.28455 11.7583 6.50773 11.7583 6.74876V11.5515C11.7583 11.6497 11.7048 11.739 11.6155 11.7836L10.8835 12.1764V8.83771C10.8835 8.6056 10.7585 8.38242 10.5621 8.26637L7.39296 6.35597V4.40986C7.39296 4.34738 7.41082 4.29381 7.4376 4.24025C7.52687 4.07956 7.74112 4.026 7.89288 4.11527L11.428 6.1685Z" fill="#00D395"/>
</svg>
