<svg width="16" height="17" viewBox="0 0 16 17" fill="none" xmlns="http://www.w3.org/2000/svg">
<path d="M3.29286 6.48232L0.86672 5.24707C0.676946 5.61991 0.515326 6.01083 0.386719 6.40899L2.97731 7.24666C3.06197 6.98478 3.16789 6.7276 3.29286 6.48232Z" fill="white"/>
<path d="M5.35363 4.3052L6.69743 6.62056C6.89368 6.50675 7.10374 6.41923 7.32224 6.36048L6.62677 3.77517C6.80375 3.72758 6.98362 3.68829 7.16449 3.65973L6.73712 0.970703C6.32376 1.03632 5.91303 1.13536 5.51606 1.26478L6.34707 3.81163C6.08274 3.89791 5.82533 4.00505 5.57743 4.13183L4.35596 1.74762C3.98451 1.938 3.62522 2.15916 3.2876 2.40565L4.89265 4.60476C5.0405 4.497 5.19522 4.39735 5.35363 4.3052Z" fill="white"/>
<path d="M12.565 6.22377L10.2505 7.56881C10.3645 7.76484 10.452 7.97507 10.511 8.19322L13.0961 7.49648C13.1437 7.6735 13.183 7.85315 13.2117 8.03381L15.9003 7.60565C15.8345 7.19251 15.7353 6.78156 15.6055 6.38441L13.059 7.217C12.9725 6.95271 12.8654 6.69548 12.7384 6.44758L15.1218 5.22451C14.9314 4.85347 14.7098 4.49417 14.4634 4.15674L12.2649 5.76284C12.3728 5.91069 12.4729 6.06519 12.565 6.22377Z" fill="white"/>
<path d="M11.6212 1.73672C11.248 1.54715 10.8571 1.38573 10.4593 1.25732L9.62305 3.84833C9.8847 3.93278 10.1419 4.03891 10.3876 4.16367L11.6212 1.73672Z" fill="white"/>
<path d="M10.6546 4.25745L9.29541 6.61636C9.49228 6.72977 9.67372 6.86873 9.83515 7.0295L13.6472 3.20448C13.3515 2.9098 13.0303 2.63618 12.6925 2.39111L11.1202 4.55943C10.9703 4.45087 10.815 4.35001 10.6546 4.25745Z" fill="white"/>
<path d="M3.38758 6.21497L5.74586 7.5756C5.85928 7.37895 5.99863 7.19728 6.15966 7.03564L2.33624 3.22217C2.04135 3.51787 1.76753 3.83888 1.52246 4.1765L3.68997 5.74979C3.58141 5.89943 3.48014 6.05459 3.38758 6.21497Z" fill="white"/>
<path d="M8.82523 3.61416L9.23657 0.967262C8.83009 0.904071 8.41411 0.87207 7.99992 0.87207H7.99365V6.2724H7.99992C8.22758 6.2724 8.45279 6.30158 8.6695 6.35909L9.36782 3.72758C9.18917 3.68019 9.00812 3.64272 8.82523 3.61416Z" fill="white"/>
<path d="M5.48723 8.20113L2.85612 7.50098C2.80852 7.67962 2.77085 7.86067 2.74229 8.04356L0.095798 7.63099C0.0322027 8.03892 0 8.45653 0 8.87194H5.40032C5.40032 8.64389 5.42954 8.41806 5.48723 8.20113Z" fill="white"/>
<path d="M12.7073 11.2619L15.1334 12.4972C15.3231 12.1243 15.4848 11.7334 15.6134 11.3353L13.0228 10.4976C12.9381 10.7594 12.8322 11.0167 12.7073 11.2619Z" fill="white"/>
<path d="M10.6459 13.4384L9.30206 11.123C9.1058 11.2369 8.8958 11.3243 8.67725 11.3831L9.37276 13.9684C9.19552 14.016 9.01587 14.0553 8.83504 14.0839L9.26215 16.7727C9.67555 16.707 10.0863 16.608 10.4833 16.4786L9.65225 13.9317C9.91675 13.8455 10.174 13.7383 10.4219 13.6116L11.6433 15.9958C12.0148 15.8054 12.3741 15.5842 12.7117 15.3377L11.1066 13.1386C10.9588 13.2464 10.8043 13.3462 10.6459 13.4384Z" fill="white"/>
<path d="M3.4354 11.5202L5.75017 10.1752C5.63614 9.97912 5.54861 9.76889 5.48969 9.55078L2.90457 10.2475C2.85697 10.0705 2.81768 9.89081 2.78892 9.71015L0.100098 10.1383C0.165921 10.5515 0.265162 10.9624 0.394985 11.3596L2.94143 10.527C3.02791 10.7913 3.13505 11.0485 3.26204 11.2964L0.878635 12.5195C1.06901 12.8905 1.29059 13.2498 1.53707 13.5872L3.73556 11.9812C3.62761 11.8333 3.52756 11.6788 3.4354 11.5202Z" fill="white"/>
<path d="M4.37891 16.007C4.75216 16.1966 5.14304 16.358 5.54085 16.4865L6.37711 13.8954C6.11541 13.811 5.85823 13.7048 5.61252 13.5801L4.37891 16.007Z" fill="white"/>
<path d="M5.34564 13.4859L6.70486 11.127C6.508 11.0136 6.3265 10.8746 6.16508 10.7139L2.35303 14.5389C2.64872 14.8336 2.96994 15.1072 3.30777 15.3523L4.88002 13.1839C5.02992 13.2925 5.18522 13.3933 5.34564 13.4859Z" fill="white"/>
<path d="M12.6124 11.529L10.2541 10.1685C10.1407 10.3651 10.0013 10.5468 9.84033 10.7084L13.6635 14.5221C13.9584 14.2264 14.2322 13.9054 14.4773 13.5677L12.3098 11.9945C12.4184 11.8448 12.5198 11.6895 12.6124 11.529Z" fill="white"/>
<path d="M7.33064 11.3843L6.63232 14.0158C6.81097 14.0632 6.99202 14.1007 7.17491 14.1292L6.76379 16.7761C7.17027 16.8393 7.58625 16.8713 8.00044 16.8713H8.00671V11.471H8.00044C7.77278 11.471 7.54735 11.4418 7.33064 11.3843Z" fill="white"/>
<path d="M10.5998 8.87207C10.5998 9.10013 10.5704 9.32573 10.5127 9.54283L13.1438 10.243C13.1914 10.0644 13.2291 9.8833 13.2576 9.70041L15.9043 10.1132C15.9679 9.70527 16.0001 9.28766 16.0001 8.87225L10.5998 8.87207Z" fill="white"/>
</svg>
