<svg width="24" height="24" viewBox="0 0 24 24" fill="none" xmlns="http://www.w3.org/2000/svg">
<g clip-path="url(#clip0_70_4539)">
<path d="M24 12C24 5.37258 18.6274 0 12 0C5.37258 0 0 5.37258 0 12C0 18.6274 5.37258 24 12 24C18.6274 24 24 18.6274 24 12Z" fill="white"/>
<path d="M17.7383 9.25567V14.7437C17.7383 15.0965 17.5535 15.4157 17.2455 15.5949L12.4911 18.3389C12.1887 18.5125 11.8135 18.5125 11.5111 18.3389L6.75668 15.5949C6.45428 15.4213 6.26388 15.0965 6.26388 14.7437V9.25567C6.26388 8.90287 6.44868 8.58367 6.75668 8.40447L11.5111 5.66047C11.8135 5.48687 12.1887 5.48687 12.4911 5.66047L17.2455 8.40447C17.5479 8.57807 17.7327 8.90287 17.7327 9.25567H17.7383Z" fill="white"/>
<path d="M10.9661 13.0639L11.6437 14.9231C11.6604 14.9735 11.6604 15.0295 11.6437 15.0855L10.4789 18.2831L9.12925 17.5047L10.7477 13.0639C10.7869 12.9631 10.9269 12.9631 10.9661 13.0639Z" fill="black"/>
<path d="M9.60312 9.93839C9.64232 9.83759 9.78232 9.83759 9.82152 9.93839L10.4991 11.7976C10.5159 11.848 10.5159 11.904 10.4991 11.96L8.58952 17.196L7.23992 16.4176L9.60312 9.94399V9.93839Z" fill="black"/>
<path d="M12.0022 5.868C11.9686 5.868 11.935 5.8792 11.907 5.896L6.76623 8.864C6.70463 8.8976 6.67103 8.9648 6.67103 9.032V14.968C6.67103 15.0352 6.71023 15.1024 6.76623 15.136L11.907 18.104C11.935 18.1208 11.9686 18.132 12.0022 18.132C12.0358 18.132 12.0694 18.1208 12.0974 18.104L17.2382 15.136C17.2998 15.1024 17.3334 15.0352 17.3334 14.968V9.0264C17.3334 8.9592 17.2942 8.892 17.2382 8.8584L12.0974 5.8904C12.0694 5.8736 12.0358 5.8624 12.0022 5.8624V5.868ZM12.0022 5C12.187 5 12.3662 5.0448 12.5342 5.14L17.675 8.108C18.0054 8.2984 18.207 8.6456 18.207 9.0264V14.9624C18.207 15.3432 18.0054 15.6904 17.675 15.8808L12.5342 18.8488C12.3718 18.944 12.187 18.9888 12.0022 18.9888C11.8174 18.9888 11.6382 18.944 11.4702 18.8488L6.32943 15.8808C5.99903 15.6904 5.79743 15.3432 5.79743 14.9624V9.0264C5.79743 8.6456 5.99903 8.2984 6.32943 8.108L11.4758 5.14C11.6382 5.0448 11.823 5 12.0078 5H12.0022Z" fill="black"/>
<path d="M15.4062 17.202L14.9302 15.9028L13.9782 16.6924L14.8686 17.51L15.4062 17.202Z" fill="white"/>
<path d="M12.4402 8.60619H13.745C13.8402 8.60619 13.9298 8.66779 13.9634 8.75739L16.7578 16.4182L15.4082 17.1966L12.3282 8.75739C12.3002 8.67899 12.3562 8.60059 12.4346 8.60059L12.4402 8.60619Z" fill="black"/>
<path d="M10.1559 8.60619H11.4607C11.5559 8.60619 11.6455 8.66779 11.6791 8.75739L14.8711 17.5046L13.5215 18.283L10.0495 8.75739C10.0215 8.67899 10.0775 8.60059 10.1559 8.60059V8.60619Z" fill="black"/>
</g>
<defs>
<clipPath id="clip0_70_4539">
<rect width="24" height="24" fill="white"/>
</clipPath>
</defs>
</svg>
