<svg width="24" height="24" viewBox="0 0 24 24" fill="none" xmlns="http://www.w3.org/2000/svg">
<g clip-path="url(#clip0_70_4314)">
<path d="M24 12C24 5.37258 18.6274 0 12 0C5.37258 0 0 5.37258 0 12C0 18.6274 5.37258 24 12 24C18.6274 24 24 18.6274 24 12Z" fill="white"/>
<path d="M11.9994 18C15.3131 18 17.9994 15.3137 17.9994 12C17.9994 8.68632 15.3131 6 11.9994 6C8.8352 6 6.24308 8.44938 6.01562 11.5556H13.8721V12.4444H6.01562C6.24308 15.5506 8.8352 18 11.9994 18Z" fill="#0E0C15"/>
<path d="M23.9242 12.0002C23.9242 5.4142 18.5852 0.0751953 11.9992 0.0751953C5.41322 0.0751953 0.0742188 5.4142 0.0742188 12.0002C0.0742188 18.5862 5.41322 23.9252 11.9992 23.9252C18.5852 23.9252 23.9242 18.5862 23.9242 12.0002Z" stroke="#2C2A32" stroke-width="0.15"/>
</g>
<defs>
<clipPath id="clip0_70_4314">
<rect width="24" height="24" fill="white"/>
</clipPath>
</defs>
</svg>
