<svg width="24" height="24" viewBox="0 0 24 24" fill="none" xmlns="http://www.w3.org/2000/svg">
<g clip-path="url(#clip0_70_4237)">
<path d="M24 12C24 5.37258 18.6274 0 12 0C5.37258 0 0 5.37258 0 12C0 18.6274 5.37258 24 12 24C18.6274 24 24 18.6274 24 12Z" fill="white"/>
<path d="M12.0016 3.59961L6.60156 12.1661L12.0016 9.81081V3.59961Z" fill="#AAAAAA"/>
<path d="M12.0016 15.1936L6.60156 12.156L12.0016 9.81152V15.1936Z" fill="#737373"/>
<path d="M12.0012 16.1889L6.60156 13.1504L12.0012 20.4016V16.1889Z" fill="#AAAAAA"/>
<path d="M12 3.59961L17.3999 12.1661L12 9.81081V3.59961Z" fill="#737373"/>
<path d="M12 15.1936L17.3999 12.1668L12 9.81152V15.1936Z" fill="#0E0C15"/>
<path d="M12 16.1867L17.3999 13.2031L12 20.3995V16.1867Z" fill="#737373"/>
<path d="M23.9242 11.9992C23.9242 5.41322 18.5852 0.0742188 11.9992 0.0742188C5.41322 0.0742188 0.0742188 5.41322 0.0742188 11.9992C0.0742188 18.5852 5.41322 23.9242 11.9992 23.9242C18.5852 23.9242 23.9242 18.5852 23.9242 11.9992Z" stroke="#2C2A32" stroke-width="0.15"/>
</g>
<defs>
<clipPath id="clip0_70_4237">
<rect width="24" height="24" fill="white"/>
</clipPath>
</defs>
</svg>
