<svg viewBox="0 0 512 512" fill="none" xmlns="http://www.w3.org/2000/svg">
    <g clip-path="url(#mantle_icon_svg__a)" fill="#fff">
        <path d="M105.378 179.524 27.735 139.99c-6.092 11.925-11.212 24.433-15.36 37.201l82.892 26.831c2.722-8.425 6.092-16.656 10.111-24.498Zm65.914-69.671 42.969 74.078a83.902 83.902 0 0 1 19.961-8.296l-22.23-82.697c5.639-1.491 11.407-2.787 17.24-3.695L215.557 3.177a252.342 252.342 0 0 0-39.081 9.397l26.573 81.531a174.443 174.443 0 0 0-24.628 10.24l-39.016-76.281c-11.86 6.092-23.397 13.156-34.155 21.063l51.33 70.319c4.731-3.435 9.656-6.611 14.712-9.592Zm230.794 61.375-74.078 43.034c3.629 6.287 6.481 13.027 8.36 19.962l82.698-22.295a155.615 155.615 0 0 1 3.694 17.175l86.068-13.675a245.38 245.38 0 0 0-9.462-39.081l-81.467 26.702a174.318 174.318 0 0 0-10.24-24.628l76.282-39.145c-6.092-11.86-13.156-23.397-21.063-34.155l-70.319 51.394a204.047 204.047 0 0 1 9.527 14.712ZM371.882 27.674c-11.925-6.092-24.434-11.212-37.201-15.36l-26.767 82.892c8.361 2.722 16.591 6.092 24.498 10.11l39.47-77.642Zm-30.98 80.688-43.488 75.504a83.491 83.491 0 0 1 17.24 13.221L436.626 74.661c-9.462-9.462-19.767-18.212-30.525-26.053l-50.293 69.411c-4.796-3.5-9.721-6.74-14.906-9.657Zm-232.54 62.607 75.439 43.552c3.629-6.286 8.101-12.119 13.221-17.304L74.726 75.18c-9.463 9.462-18.212 19.767-26.054 30.525l69.347 50.358a188.816 188.816 0 0 0-9.657 14.906Zm174.016-83.217 13.156-84.707A260.274 260.274 0 0 0 255.935 0h-.194v172.784h.194c7.259 0 14.518.907 21.452 2.787l22.36-84.189c-5.703-1.555-11.472-2.722-17.369-3.63ZM175.571 234.548l-84.189-22.425a175.797 175.797 0 0 0-3.63 17.37L3.047 216.271A261.978 261.978 0 0 0 0 256h172.784c0-7.324.972-14.518 2.787-21.452Zm231.046 97.928 77.643 39.534c6.092-11.925 11.212-24.433 15.36-37.201l-82.892-26.831c-2.722 8.425-6.093 16.656-10.111 24.498Zm-65.975 69.606-42.97-74.078a83.902 83.902 0 0 1-19.961 8.296l22.23 82.697c-5.639 1.491-11.407 2.787-17.24 3.695l13.675 86.067a252.308 252.308 0 0 0 39.081-9.397l-26.572-81.531a174.492 174.492 0 0 0 24.627-10.24l39.081 76.281c11.86-6.092 23.396-13.156 34.155-21.063l-51.33-70.384c-4.731 3.565-9.656 6.74-14.776 9.657Zm-230.728-61.31 74.078-43.099c-3.629-6.287-6.481-13.027-8.36-19.962l-82.698 22.295a155.823 155.823 0 0 1-3.694-17.175L3.172 296.506a245.297 245.297 0 0 0 9.462 39.081L94.1 308.95a177.78 177.78 0 0 0 10.24 24.628l-76.281 39.145c6.092 11.86 13.156 23.396 21.063 34.155l70.319-51.395a203.806 203.806 0 0 1-9.527-14.711Zm30.203 143.554c11.925 6.092 24.434 11.212 37.201 15.36l26.767-82.892c-8.361-2.722-16.592-6.092-24.498-10.111l-39.47 77.643Zm30.92-80.689 43.488-75.503a83.496 83.496 0 0 1-17.24-13.222L75.313 437.339c9.462 9.462 19.767 18.211 30.525 26.053l50.293-69.411a188.805 188.805 0 0 0 14.906 9.656Zm232.537-62.606-75.439-43.553c-3.629 6.287-8.101 12.12-13.221 17.305L437.276 436.82c9.462-9.462 18.211-19.767 26.053-30.525l-69.347-50.358c3.435-4.861 6.676-9.786 9.592-14.906Zm-169.027-4.602-22.359 84.189a175.83 175.83 0 0 0 17.369 3.629L216.4 508.954A260.29 260.29 0 0 0 255.999 512h.195V339.216h-.195c-7.259 0-14.517-.972-21.452-2.787ZM339.217 256c0 7.323-.908 14.517-2.787 21.452l84.188 22.424a175.543 175.543 0 0 0 3.629-17.369l84.707 13.222A261.992 261.992 0 0 0 512 256H339.217Z"/>
    </g>
    <defs>
        <clipPath id="mantle_icon_svg__a">
            <path fill="#fff" d="M0 0h512v512H0z"/>
        </clipPath>
    </defs>
</svg>
