<svg width="24" height="24" viewBox="0 0 24 24" fill="none" xmlns="http://www.w3.org/2000/svg">
<g clip-path="url(#clip0_70_4304)">
<path d="M18 0H6C2.68629 0 0 2.68629 0 6V18C0 21.3137 2.68629 24 6 24H18C21.3137 24 24 21.3137 24 18V6C24 2.68629 21.3137 0 18 0Z" fill="white"/>
<path d="M17.9992 0.0751953H5.99922C2.72693 0.0751953 0.0742188 2.72791 0.0742188 6.0002V18.0002C0.0742188 21.2725 2.72693 23.9252 5.99922 23.9252H17.9992C21.2715 23.9252 23.9242 21.2725 23.9242 18.0002V6.0002C23.9242 2.72791 21.2715 0.0751953 17.9992 0.0751953Z" stroke="#0A0A0A" stroke-opacity="0.15" stroke-width="0.15"/>
<path fill-rule="evenodd" clip-rule="evenodd" d="M5.82078 15.1471C6.35418 15.5401 7.03836 15.7367 7.87356 15.7367C8.8842 15.7367 9.6912 15.5015 10.2947 15.0314C10.8983 14.5541 11.3229 13.8348 11.5685 12.8733C11.7159 12.2838 11.8423 11.6767 11.9475 11.0521C11.9826 10.8275 12.0002 10.6416 12.0002 10.4942C12.0002 10.0029 11.8773 9.58187 11.6317 9.23099C11.3861 8.87303 11.0492 8.60633 10.6211 8.43089C10.193 8.24843 9.70878 8.15723 9.16836 8.15723C7.1823 8.15723 5.95061 9.12221 5.4734 11.0521C5.30498 11.7609 5.17515 12.368 5.08388 12.8733C5.04881 13.0979 5.03125 13.2874 5.03125 13.4418C5.03125 14.1787 5.29443 14.7471 5.82078 15.1471ZM9.021 13.8734C8.74728 14.105 8.41398 14.2208 8.02092 14.2208C7.34724 14.2208 7.01034 13.898 7.01034 13.2522C7.01034 13.0979 7.02438 12.9505 7.05246 12.8102C7.17876 12.1294 7.30512 11.5539 7.43142 11.0837C7.5507 10.6065 7.74726 10.2521 8.02092 10.0205C8.30166 9.78887 8.6385 9.67307 9.03156 9.67307C9.69822 9.67307 10.0316 9.99239 10.0316 10.631C10.0316 10.7855 10.0175 10.9364 9.98952 11.0837C9.90528 11.5749 9.78246 12.1505 9.621 12.8102C9.50178 13.2874 9.30174 13.6418 9.021 13.8734ZM12.3044 15.5575C12.3466 15.6066 12.4063 15.6312 12.4834 15.6312H13.9151C13.9853 15.6312 14.0519 15.6066 14.1151 15.5575C14.1782 15.5084 14.2168 15.4452 14.2309 15.368L14.7151 13.0626H16.1363C17.0557 13.0626 17.7785 12.8696 18.3049 12.4836C18.8383 12.0977 19.1927 11.5011 19.3681 10.694C19.4102 10.5045 19.4312 10.322 19.4312 10.1466C19.4312 9.53603 19.1927 9.06941 18.7154 8.74649C18.2452 8.42369 17.6206 8.26229 16.8416 8.26229H14.0414C13.9712 8.26229 13.9046 8.28689 13.8414 8.33597C13.7782 8.38511 13.7396 8.44829 13.7256 8.52545L12.2729 15.368C12.2588 15.4382 12.2693 15.5013 12.3044 15.5575ZM16.9784 11.3678C16.7609 11.5292 16.5047 11.6099 16.21 11.6099H14.9993L15.3994 9.72557H16.6627C16.9504 9.72557 17.1539 9.78167 17.2732 9.89399C17.3926 9.99923 17.4522 10.1536 17.4522 10.3572C17.4522 10.4484 17.4416 10.5536 17.4206 10.673C17.3504 10.9748 17.203 11.2064 16.9784 11.3678Z" fill="#0E0C15"/>
</g>
<defs>
<clipPath id="clip0_70_4304">
<rect width="24" height="24" rx="12" fill="white"/>
</clipPath>
</defs>
</svg>
