<svg width="24" height="24" viewBox="0 0 24 24" fill="none" xmlns="http://www.w3.org/2000/svg">
<g clip-path="url(#clip0_70_4324)">
<path d="M18 0H6C2.68629 0 0 2.68629 0 6V18C0 21.3137 2.68629 24 6 24H18C21.3137 24 24 21.3137 24 18V6C24 2.68629 21.3137 0 18 0Z" fill="white"/>
<path d="M17.9992 0.0751953H5.99922C2.72693 0.0751953 0.0742188 2.72791 0.0742188 6.0002V18.0002C0.0742188 21.2725 2.72693 23.9252 5.99922 23.9252H17.9992C21.2715 23.9252 23.9242 21.2725 23.9242 18.0002V6.0002C23.9242 2.72791 21.2715 0.0751953 17.9992 0.0751953Z" stroke="#0A0A0A" stroke-opacity="0.15" stroke-width="0.15"/>
<path fill-rule="evenodd" clip-rule="evenodd" d="M7.07286 10.488C6.55266 10.0003 6.195 9.36632 6.195 8.61854V8.5373C6.24378 7.26932 7.28418 6.22892 8.55216 6.19646H16.664C16.8754 6.21272 17.0379 6.359 17.0379 6.57032V13.4466C17.1767 13.4718 17.2666 13.497 17.3834 13.5298C17.4171 13.5393 17.4532 13.5495 17.4931 13.5603C17.6394 13.6091 17.8345 13.7229 17.8345 13.7229V6.57032C17.8182 5.92009 17.298 5.3999 16.6478 5.3999H8.55216C6.7965 5.43242 5.39844 6.86294 5.39844 8.61854C5.39844 9.64268 5.86987 10.5205 6.61764 11.122C6.66642 11.1707 6.7152 11.2195 6.86148 11.2195C7.10532 11.2195 7.26792 11.0244 7.25166 10.8294C7.25166 10.6506 7.18662 10.5855 7.07286 10.488ZM16.4527 13.902H10.0965C9.67386 13.902 9.33246 14.2434 9.33246 14.6823V15.5926C9.34872 16.0153 9.70632 16.3729 10.129 16.3729H10.6004V15.5926H10.129V14.6986H10.3891C11.1857 14.6986 11.7871 15.4463 11.7871 16.2429C11.7871 16.9581 11.1369 17.8522 10.064 17.7871C9.10488 17.7222 8.58468 16.8768 8.58468 16.2429V8.48882C8.58468 8.14748 8.29206 7.85486 7.95066 7.85486H7.3167V8.65136H7.78812V16.2591C7.7556 17.8034 8.89356 18.5837 10.064 18.5837L16.4689 18.6C17.7532 18.6 18.8098 17.5596 18.8098 16.2591C18.7936 14.9587 17.7532 13.902 16.4527 13.902ZM17.997 16.2916C17.9645 17.1207 17.2817 17.7871 16.4527 17.7871L11.9985 17.7709C12.3561 17.3645 12.5674 16.8281 12.5674 16.2429C12.5674 15.3325 12.031 14.6986 12.031 14.6986H16.4689C17.3143 14.6986 18.0133 15.3976 18.0133 16.2429L17.997 16.2916ZM9.95022 8.78126H14.7458C14.9734 8.78126 15.136 8.6024 15.136 8.39108C15.136 8.17976 14.9572 8.00096 14.7458 8.00096H9.95022V8.78126ZM14.7458 12.5201H9.95022V11.7235H14.7458C14.9572 11.7235 15.136 11.9023 15.136 12.1137C15.136 12.3412 14.9734 12.5201 14.7458 12.5201ZM9.95028 10.6508H15.5912C15.8025 10.6508 15.9814 10.472 15.9814 10.2444C15.9814 10.0331 15.8025 9.8543 15.5912 9.8543H9.95028V10.6508Z" fill="#0E0C15"/>
</g>
<defs>
<clipPath id="clip0_70_4324">
<rect width="24" height="24" rx="12" fill="white"/>
</clipPath>
</defs>
</svg>
