<svg width="16" height="16" viewBox="0 0 16 16" fill="none" xmlns="http://www.w3.org/2000/svg">
    <path d="M1.47241 4.86394V11.1353C1.47241 11.5197 1.69603 11.9041 2.01764 12.0951L7.45734 15.2308C7.80909 15.4217 8.22618 15.4217 8.57794 15.2308L14.0176 12.0951C14.3694 11.9041 14.5629 11.5197 14.5629 11.1353V4.86394C14.5629 4.47951 14.3392 4.09509 14.0176 3.90414L8.57543 0.76846C8.22367 0.577505 7.80658 0.577505 7.45482 0.76846L2.01513 3.90414C1.66337 4.09509 1.47241 4.47951 1.47241 4.86394Z" fill="#213147" />
    <path d="M9.21571 9.21622L8.44686 11.3293C8.4142 11.3921 8.4142 11.4574 8.44686 11.5202L9.79108 15.1685L11.3263 14.2715L9.46947 9.21622C9.43932 9.08808 9.27852 9.08808 9.21571 9.21622Z" fill="#12AAFF" />
    <path d="M10.7508 5.63297C10.7181 5.50483 10.5598 5.50483 10.4945 5.63297L9.72567 7.74604C9.69301 7.80885 9.69301 7.87418 9.72567 7.93699L11.9015 13.9219L13.4367 13.0249L10.7508 5.63297Z" fill="#12AAFF" />
    <path d="M7.99999 0.992462C8.03265 0.992462 8.0628 0.992462 8.09546 1.02513L13.9824 4.41708C14.0452 4.44975 14.0779 4.51256 14.0779 4.60804V11.392C14.0779 11.4548 14.0452 11.5528 13.9824 11.5829L8.09546 14.9749C8.0628 15.0075 8.03265 15.0075 7.99999 15.0075C7.96732 15.0075 7.93717 15.0075 7.90451 14.9749L2.01758 11.5829C1.95476 11.5503 1.9221 11.4874 1.9221 11.392V4.60804C1.9221 4.54523 1.95476 4.44724 2.01758 4.41708L7.90451 1.02513C7.93466 0.992462 7.96732 0.992462 7.99999 0.992462ZM7.99999 0C7.77637 0 7.5829 0.0628141 7.39195 0.160804L1.50501 3.55276C1.12059 3.77638 0.896973 4.1608 0.896973 4.60804V11.392C0.896973 11.809 1.12059 12.2236 1.50501 12.4472L7.39195 15.8392C7.5829 15.9347 7.77637 16 7.99999 16C8.2236 16 8.41707 15.9372 8.60803 15.8392L14.495 12.4472C14.8794 12.2236 15.103 11.8392 15.103 11.392V4.60804C15.103 4.19095 14.8794 3.77638 14.495 3.55276L8.63818 0.160804C8.44722 0.0653266 8.25376 0 8.03014 0H7.99999Z" fill="#9DCCED" />
    <path d="M4.12817 13.9196L4.67089 12.4473L5.75883 13.3443L4.73621 14.304L4.12817 13.9196Z" fill="#213147" />
    <path d="M7.51937 4.12817H6.01434C5.91887 4.12817 5.79073 4.19099 5.75806 4.28898L2.55957 13.0553L4.09475 13.9523L7.61485 4.31913C7.64751 4.22365 7.58218 4.12817 7.48671 4.12817H7.51937Z" fill="white" />
    <path d="M10.1099 4.1283H8.60489C8.50941 4.1283 8.38127 4.19111 8.34861 4.2891L4.70288 14.2715L6.23806 15.1685L10.2054 4.2891C10.2381 4.19362 10.1727 4.09814 10.0773 4.09814L10.1099 4.1283Z" fill="white" />
</svg>