<svg width="40" height="40" viewBox="0 0 40 40" fill="none" xmlns="http://www.w3.org/2000/svg">
<rect width="40" height="40" rx="20" fill="#00A3FF"/>
<path d="M19.9998 32.204C24.9705 32.204 28.9999 28.1754 28.9999 23.2059C28.9999 21.3473 28.4363 19.6203 27.4706 18.1865L20.0005 22.4401L19.9998 32.204Z" fill="#9ADBFD"/>
<path d="M12.5415 18.1682C12.5401 18.1701 12.5388 18.1721 12.5375 18.174L12.5398 18.1753L12.5415 18.1682Z" fill="#FFFFFD"/>
<path d="M12.5345 18.1784C11.5655 19.6138 10.9998 21.3438 10.9998 23.2059C10.9998 28.1754 15.0291 32.204 19.9997 32.204L20.0004 22.4401L12.5345 18.1784Z" fill="#FFFFFD"/>
<path d="M19.9995 32.204L12.5349 18.1796L19.9995 22.4377V32.204Z" fill="#BDDEF0"/>
<path d="M19.9997 13.2896L13.398 16.8851L19.9997 20.4801V13.2896Z" fill="#BDDEF0"/>
<path d="M19.9999 13.2896L13.3982 16.8851L19.9999 7.00013L19.9999 13.2896Z" fill="#F0F0F0"/>
<path d="M20.0001 32.204L27.4644 18.1921L20.0001 22.4377V32.204Z" fill="#32B5FF"/>
<path d="M19.9997 13.2896L26.6118 16.886L19.9997 20.4801V13.2896Z" fill="#32B5FF"/>
<path d="M19.9997 13.2896L26.605 16.886L19.9997 7.01342V13.2896Z" fill="#BDDEF0"/>
<rect x="0.125" y="0.125" width="39.75" height="39.75" rx="19.875" stroke="#0F171F" stroke-opacity="0.15" stroke-width="0.25"/>
</svg>
