<svg width="24" height="24" viewBox="0 0 24 24" fill="none" xmlns="http://www.w3.org/2000/svg">
<path d="M18.3476 16.0727C18.8309 16.5315 18.8309 17.2658 18.3476 17.6788C18.1059 17.9082 17.816 18 17.4777 18C17.1394 18 16.8494 17.9082 16.6078 17.6788L12.5483 13.7782L8.44052 17.6788C8.19888 17.9082 7.90892 18 7.57063 18C7.23234 18 6.94238 17.9082 6.70074 17.6788C6.21747 17.2199 6.21747 16.4857 6.70074 16.0727L10.8086 12.1721L6.36245 7.95029C5.87918 7.49139 5.87918 6.75717 6.36245 6.34417C6.84572 5.88528 7.61896 5.88528 8.0539 6.34417L12.5 10.566L16.9461 6.34417C17.4294 5.88528 18.2026 5.88528 18.6375 6.34417C19.1208 6.80306 19.1208 7.53728 18.6375 7.95029L14.1914 12.1721L18.3476 16.0727Z" fill="white"/>
</svg>
