<svg width="108" height="24" viewBox="0 0 108 24" fill="none" xmlns="http://www.w3.org/2000/svg">
<path fill-rule="evenodd" clip-rule="evenodd" d="M105.675 13.6546C105.675 12.2485 104.849 11.1996 103.532 11.1996C102.215 11.1996 101.39 12.2485 101.39 13.6546C101.39 15.0606 102.215 16.1095 103.532 16.1095C104.849 16.1318 105.675 15.0606 105.675 13.6546ZM105.608 10.2623V6.57984C105.608 6.33434 105.764 6.13348 106.009 6.06653L107.951 5.55322V18.0065H105.786V16.9576C105.251 17.761 104.269 18.2074 103.041 18.2074C100.519 18.2074 99.0462 16.1988 99.0462 13.6769C99.0462 11.155 100.519 9.14638 103.041 9.14638C104.269 9.12406 105.161 9.65969 105.608 10.2623ZM92.2839 9.32492V10.3739C92.6857 9.63737 93.5784 9.12406 94.8728 9.12406C96.9483 9.12406 98.0642 10.5078 98.0642 12.5833V17.9842H95.7209V12.8511C95.7209 11.8468 95.2968 11.155 94.2479 11.155C93.1097 11.155 92.4848 11.8915 92.4848 13.0297V17.9842H90.1414V9.32492H92.2839ZM84.6289 18.1851C82.107 18.1851 80.701 17.0915 80.701 14.2795V9.32492H83.0444V14.3241C83.0444 15.5293 83.58 16.0872 84.6289 16.0872C85.6779 16.0872 86.2135 15.5293 86.2135 14.3241V9.32492H88.5569V14.2795C88.5569 17.0915 87.1509 18.1851 84.6289 18.1851ZM72.9345 13.6546C72.9345 15.2168 73.8941 16.1095 75.1216 16.1095C76.3714 16.1095 77.3087 15.1945 77.3087 13.6546C77.3087 12.0923 76.3491 11.1996 75.1216 11.1996C73.8941 11.1996 72.9345 12.0923 72.9345 13.6546ZM75.1439 18.1851C72.3765 18.1851 70.5911 16.1095 70.5911 13.6546C70.5911 11.1996 72.3542 9.12406 75.1439 9.12406C77.9113 9.12406 79.6967 11.1996 79.6967 13.6546C79.6967 16.1318 77.9113 18.1851 75.1439 18.1851ZM63.4494 13.6546C63.4494 15.0606 64.2752 16.1095 65.5919 16.1095C66.9087 16.1095 67.7344 15.0606 67.7344 13.6546C67.7344 12.2485 66.9087 11.1996 65.5919 11.1996C64.2752 11.1996 63.4494 12.2485 63.4494 13.6546ZM63.5164 17.0692V20.6623C63.5164 20.9078 63.3601 21.1087 63.1146 21.1756L61.173 21.6889V9.32492H63.3378V10.3739C63.8734 9.57041 64.8554 9.12406 66.0829 9.12406C68.6048 9.12406 70.0778 11.1327 70.0778 13.6546C70.0778 16.1765 68.6048 18.1851 66.0829 18.1851C64.8331 18.1851 63.9627 17.6494 63.5164 17.0692ZM54.1875 13.052V17.9842H51.8442V12.8511C51.8442 11.8915 51.4871 11.155 50.4605 11.155C49.3669 11.155 48.7643 11.8691 48.7643 13.0297V18.0065H46.421V9.32492H48.5858V10.3739C48.9875 9.63737 49.8356 9.12406 51.0854 9.12406C52.2682 9.12406 53.094 9.59273 53.6073 10.3515C54.3661 9.50346 55.2365 9.12406 56.4863 9.12406C58.5618 9.12406 59.6331 10.5524 59.6331 12.5833V17.9842H57.2897V12.8511C57.2897 11.8915 56.9326 11.155 55.906 11.155C54.7678 11.1327 54.1875 11.8468 54.1875 13.052ZM38.5874 13.6546C38.5874 15.2168 39.5471 16.1095 40.7746 16.1095C42.0244 16.1095 42.9617 15.1945 42.9617 13.6546C42.9617 12.0923 42.0021 11.1996 40.7746 11.1996C39.5471 11.1996 38.5874 12.0923 38.5874 13.6546ZM40.7746 18.1851C38.0072 18.1851 36.2218 16.1095 36.2218 13.6546C36.2218 11.1996 37.9849 9.12406 40.7746 9.12406C43.5643 9.12406 45.3274 11.1996 45.3274 13.6546C45.3274 16.1318 43.5643 18.1851 40.7746 18.1851ZM24.0586 12.0923C24.0586 8.43221 26.5805 5.99958 29.9505 5.99958C32.8741 5.99958 35.1951 7.74036 35.6415 10.597H33.0526C32.6956 9.12406 31.5127 8.2983 29.9505 8.2983C27.808 8.2983 26.6028 9.79359 26.6028 12.0923C26.6028 14.391 27.808 15.8863 29.9505 15.8863C31.5127 15.8863 32.7179 15.0606 33.0526 13.5876H35.6415C35.1951 16.4443 32.8741 18.1851 29.9505 18.1851C26.5805 18.2074 24.0586 15.7747 24.0586 12.0923Z" fill="white"/>
<path fill-rule="evenodd" clip-rule="evenodd" d="M0.959663 18.7205C0.357084 18.3634 0 17.6939 0 17.002V13.0964C0 12.9402 0.0446355 12.8063 0.111589 12.6724C0.334766 12.2707 0.870392 12.1368 1.24979 12.36L10.0653 17.493C10.5786 17.8055 10.8911 18.3411 10.8911 18.9437V22.9832C10.8911 23.1617 10.8464 23.3626 10.7348 23.5188C10.4447 23.9875 9.81981 24.1437 9.35113 23.8536L0.959663 18.7205ZM14.1048 11.2887C14.6181 11.6012 14.9306 12.1368 14.9306 12.7394V20.9523C14.9306 21.1978 14.7967 21.421 14.5958 21.5325L12.6542 22.6261C12.6318 22.6484 12.6095 22.6484 12.5872 22.6484V18.0956C12.5872 17.5154 12.2748 16.9574 11.7614 16.645L4.01719 12.0029V6.86979C4.01719 6.71356 4.06183 6.57966 4.12878 6.44575C4.35196 6.04403 4.88759 5.91012 5.26699 6.1333L14.1048 11.2887ZM17.9658 5.24059C18.4791 5.53072 18.7915 6.08867 18.7915 6.69125V18.6982C18.7915 18.9437 18.6576 19.1669 18.4345 19.2785L16.6044 20.2604V11.9136C16.6044 11.3333 16.292 10.7754 15.801 10.4853L7.87816 5.70927V0.843998C7.87816 0.687774 7.9228 0.553869 7.98975 0.419962C8.21293 0.0182427 8.74855 -0.115666 9.12796 0.107512L17.9658 5.24059Z" fill="#00D395"/>
</svg>
