<svg width="180" height="40" viewBox="0 0 180 40" fill="none" xmlns="http://www.w3.org/2000/svg">
<path fill-rule="evenodd" clip-rule="evenodd" d="M176.124 22.7574C176.124 20.414 174.748 18.6658 172.553 18.6658C170.359 18.6658 168.983 20.414 168.983 22.7574C168.983 25.1007 170.359 26.8489 172.553 26.8489C174.748 26.8861 176.124 25.1007 176.124 22.7574ZM176.013 17.1035V10.9662C176.013 10.557 176.273 10.2222 176.682 10.1106L179.918 9.25513V30.0106H176.31V28.2624C175.418 29.6015 173.781 30.3454 171.735 30.3454C167.532 30.3454 165.077 26.9977 165.077 22.7946C165.077 18.5914 167.532 15.2437 171.735 15.2437C173.781 15.2065 175.269 16.0992 176.013 17.1035ZM153.807 15.5413V17.2895C154.476 16.062 155.964 15.2065 158.121 15.2065C161.581 15.2065 163.44 17.5127 163.44 20.9719V29.9734H159.535V21.4183C159.535 19.7445 158.828 18.5914 157.08 18.5914C155.183 18.5914 154.141 19.8189 154.141 21.7159V29.9734H150.236V15.5413H153.807ZM141.048 30.3082C136.845 30.3082 134.502 28.4856 134.502 23.7989V15.5413H138.407V23.8732C138.407 25.8818 139.3 26.8118 141.048 26.8118C142.796 26.8118 143.689 25.8818 143.689 23.8732V15.5413H147.595V23.7989C147.595 28.4856 145.251 30.3082 141.048 30.3082ZM121.557 22.7574C121.557 25.3611 123.157 26.8489 125.203 26.8489C127.286 26.8489 128.848 25.3239 128.848 22.7574C128.848 20.1536 127.248 18.6658 125.203 18.6658C123.157 18.6658 121.557 20.1536 121.557 22.7574ZM125.24 30.3082C120.628 30.3082 117.652 26.8489 117.652 22.7574C117.652 18.6658 120.59 15.2065 125.24 15.2065C129.852 15.2065 132.828 18.6658 132.828 22.7574C132.828 26.8861 129.852 30.3082 125.24 30.3082ZM105.749 22.7574C105.749 25.1007 107.125 26.8489 109.32 26.8489C111.514 26.8489 112.891 25.1007 112.891 22.7574C112.891 20.414 111.514 18.6658 109.32 18.6658C107.125 18.6658 105.749 20.414 105.749 22.7574ZM105.861 28.4484V34.437C105.861 34.8461 105.6 35.1809 105.191 35.2925L101.955 36.148V15.5413H105.563V17.2895C106.456 15.9504 108.092 15.2065 110.138 15.2065C114.341 15.2065 116.796 18.5542 116.796 22.7574C116.796 26.9605 114.341 30.3082 110.138 30.3082C108.055 30.3082 106.605 29.4155 105.861 28.4484ZM90.3126 21.7531V29.9734H86.407V21.4183C86.407 19.8189 85.8118 18.5914 84.1008 18.5914C82.2782 18.5914 81.2739 19.7817 81.2739 21.7159V30.0106H77.3683V15.5413H80.9763V17.2895C81.6459 16.062 83.0593 15.2065 85.1423 15.2065C87.1137 15.2065 88.49 15.9876 89.3455 17.2523C90.6101 15.8389 92.0608 15.2065 94.1438 15.2065C97.603 15.2065 99.3885 17.5871 99.3885 20.9719V29.9734H95.4828V21.4183C95.4828 19.8189 94.8877 18.5914 93.1767 18.5914C91.2797 18.5542 90.3126 19.7445 90.3126 21.7531ZM64.3124 22.7574C64.3124 25.3611 65.9118 26.8489 67.9576 26.8489C70.0406 26.8489 71.6029 25.3239 71.6029 22.7574C71.6029 20.1536 70.0034 18.6658 67.9576 18.6658C65.9118 18.6658 64.3124 20.1536 64.3124 22.7574ZM67.9576 30.3082C63.3453 30.3082 60.3696 26.8489 60.3696 22.7574C60.3696 18.6658 63.3081 15.2065 67.9576 15.2065C72.6072 15.2065 75.5457 18.6658 75.5457 22.7574C75.5457 26.8861 72.6072 30.3082 67.9576 30.3082ZM40.0977 20.1536C40.0977 14.0534 44.3008 9.99905 49.9175 9.99905C54.7902 9.99905 58.6586 12.9004 59.4025 17.6615H55.0877C54.4926 15.2065 52.5212 13.8303 49.9175 13.8303C46.3466 13.8303 44.338 16.3224 44.338 20.1536C44.338 23.9848 46.3466 26.477 49.9175 26.477C52.5212 26.477 54.5298 25.1007 55.0877 22.6458H59.4025C58.6586 27.4069 54.7902 30.3082 49.9175 30.3082C44.3008 30.3454 40.0977 26.291 40.0977 20.1536Z" fill="white"/>
<path fill-rule="evenodd" clip-rule="evenodd" d="M1.59944 31.2009C0.59514 30.6057 0 29.4898 0 28.3367V21.8274C0 21.567 0.0743925 21.3438 0.185981 21.1207C0.557944 20.4511 1.45065 20.228 2.08299 20.5999L16.7755 29.1551C17.631 29.6758 18.1518 30.5685 18.1518 31.5728V38.3053C18.1518 38.6029 18.0774 38.9377 17.8914 39.198C17.4078 39.9792 16.3663 40.2395 15.5852 39.756L1.59944 31.2009ZM23.508 18.8145C24.3635 19.3353 24.8843 20.228 24.8843 21.2323V34.9205C24.8843 35.3296 24.6611 35.7016 24.3263 35.8876L21.0903 37.7102C21.0531 37.7474 21.0159 37.7474 20.9787 37.7474V30.1594C20.9787 29.1923 20.4579 28.2623 19.6024 27.7416L6.69532 20.0048V11.4496C6.69532 11.1893 6.76971 10.9661 6.8813 10.7429C7.25326 10.0734 8.14598 9.85021 8.77831 10.2222L23.508 18.8145ZM29.943 8.73432C30.7985 9.21787 31.3192 10.1478 31.3192 11.1521V31.1637C31.3192 31.5728 31.0961 31.9448 30.7241 32.1308L27.674 33.7674V19.856C27.674 18.8889 27.1533 17.959 26.3349 17.4754L13.1303 9.51544V1.40666C13.1303 1.14629 13.2047 0.923114 13.3163 0.699937C13.6882 0.0304045 14.5809 -0.192776 15.2133 0.179186L29.943 8.73432Z" fill="#00D395"/>
</svg>
