<svg width="50" height="50" viewBox="0 0 50 50" fill="none" xmlns="http://www.w3.org/2000/svg">
<rect width="50" height="50" rx="25" fill="#25FFBF" fill-opacity="0.1"/>
<path d="M14.8066 25.8048L14.796 25.8237L14.7863 25.8432C14.6781 26.0597 14.5703 26.3487 14.5703 26.71V30.5749C14.5703 31.5886 15.0892 32.5866 16.0034 33.1318L24.2977 38.2054C24.2986 38.206 24.2996 38.2066 24.3006 38.2072C25.2382 38.7854 26.4512 38.4749 27.0269 37.5767C27.0996 37.4704 27.1572 37.3603 27.2024 37.25H28.1461C28.1475 37.25 28.1493 37.25 28.1516 37.2501C28.2047 37.2507 28.5071 37.2547 28.7968 37.0408L30.5366 35.9113C31.0363 35.6162 31.3454 35.07 31.3454 34.484V26.3567C31.3454 25.3987 30.8432 24.5509 30.0481 24.0669L30.0402 24.062L30.0321 24.0573L21.2895 18.9575C21.2888 18.9571 21.2882 18.9567 21.2875 18.9564C20.4368 18.4574 19.2803 18.7459 18.7819 19.643L18.7714 19.662L18.7617 19.6814C18.6534 19.8979 18.5457 20.1869 18.5457 20.5482V24.9211V25.4876L19.0315 25.7788L26.6893 30.369C26.6897 30.3693 26.6901 30.3696 26.6906 30.3698C26.7279 30.3934 26.8479 30.5056 26.9666 30.738C27.0836 30.967 27.124 31.1661 27.124 31.25L27.124 31.2544L27.1248 31.4261C26.9044 30.9241 26.531 30.499 26.0507 30.2066L26.0424 30.2015L26.034 30.1966L17.3141 25.1193C17.3133 25.1188 17.3124 25.1183 17.3116 25.1178C16.4609 24.6193 15.3048 24.9079 14.8066 25.8048ZM31.499 33.4187V35.3427L33.0736 34.2371L34.3402 33.3479C34.8585 33.0523 35.1661 32.5064 35.1661 31.9221V20.3715C35.1661 19.4366 34.6819 18.5436 33.8468 18.0687L25.1102 12.9945C25.1092 12.9939 25.1082 12.9933 25.1072 12.9927C24.2566 12.4946 23.1008 12.7833 22.6027 13.6799L22.5921 13.6989L22.5824 13.7184C22.4742 13.9349 22.3664 14.2239 22.3664 14.5852V18.2353V18.8001L22.8501 19.0917L30.6904 23.818L30.6904 23.818L30.698 23.8225C30.9185 23.9528 31.1684 24.119 31.3515 24.2905C31.4279 24.3621 31.4741 24.4175 31.499 24.4535V33.4187Z" stroke="#00D395" stroke-width="2"/>
</svg>
