<?xml version="1.0" encoding="utf-8"?>
<!-- Generator: Adobe Illustrator 25.2.1, SVG Export Plug-In . SVG Version: 6.00 Build 0)  -->
<svg version="1.1" id="Слой_1" xmlns="http://www.w3.org/2000/svg" xmlns:xlink="http://www.w3.org/1999/xlink" x="0px" y="0px"
	 viewBox="0 0 45 100" style="enable-background:new 0 0 127 28;" xml:space="preserve">
<style type="text/css">
	.st0{fill:#00D395;}
</style>
<g>
	<path class="st0" d="M127,22.4V25c0,1.7-1.3,3-3,3h-2.6L127,22.4z"/>
	<polygon class="st0" points="127,12.5 127,18.2 117.2,28 111.5,28 	"/>
	<path class="st0" d="M127,3v5.2L107.2,28h-5.7L127,2.6C127,2.8,127,2.9,127,3z"/>
	<path class="st0" d="M125.1,0.2L97.3,28h-5.7l28-28h4.3C124.4,0,124.8,0.1,125.1,0.2z"/>
	<polygon class="st0" points="115.4,0 87.4,28 81.8,28 109.8,0 	"/>
	<polygon class="st0" points="105.5,0 77.5,28 71.8,28 99.8,0 	"/>
	<polygon class="st0" points="95.6,0 67.6,28 61.9,28 89.9,0 	"/>
	<polygon class="st0" points="85.7,0 57.7,28 52,28 80,0 	"/>
	<polygon class="st0" points="75.8,0 47.8,28 42.1,28 70.1,0 	"/>
	<polygon class="st0" points="65.8,0 37.8,28 32.2,28 60.2,0 	"/>
	<polygon class="st0" points="55.9,0 27.9,28 22.3,28 50.3,0 	"/>
	<polygon class="st0" points="46,0 18,28 12.3,28 40.3,0 	"/>
	<path class="st0" d="M36.1,0l-28,28H3c-0.2,0-0.3,0-0.5,0l28-28H36.1z"/>
	<path class="st0" d="M26.2,0l-26,26C0.1,25.7,0,25.4,0,25v-4.5L20.5,0H26.2z"/>
	<polygon class="st0" points="16.3,0 0,16.3 0,10.6 10.6,0 	"/>
	<path class="st0" d="M6.4,0L0,6.4V3c0-1.6,1.3-3,3-3H6.4z"/>
</g>
</svg>
