<svg width="40" height="40" viewBox="0 0 40 40" fill="none" xmlns="http://www.w3.org/2000/svg">
<rect width="40" height="40" rx="20" fill="#25FFBF" fill-opacity="0.1"/>
<path fill-rule="evenodd" clip-rule="evenodd" d="M14.6667 12.1116C13.1939 12.1116 12 13.3197 12 14.8101V24.4923C12 25.5144 12.5707 26.4488 13.4741 26.906L18.8074 29.6044C19.5582 29.9843 20.4418 29.9843 21.1925 29.6044L26.5259 26.906C27.4293 26.4488 28 25.5144 28 24.4923V14.8101C28 13.3197 26.8061 12.1116 25.3333 12.1116H14.6667ZM13.7778 14.8101C13.7778 14.3133 14.1757 13.9106 14.6667 13.9106H25.3333C25.8242 13.9106 26.2222 14.3133 26.2222 14.8101V24.4923C26.2222 24.833 26.032 25.1445 25.7309 25.2969L20.3975 27.9954C20.1473 28.122 19.8527 28.122 19.6025 27.9954L14.2691 25.2969C13.968 25.1445 13.7778 24.833 13.7778 24.4923V14.8101ZM22.9405 18.9381C23.2298 18.5367 23.1426 17.974 22.7459 17.6813C22.3493 17.3886 21.7933 17.4767 21.504 17.8782L19.6006 20.5198L18.9192 19.6488C18.6145 19.2593 18.0554 19.1935 17.6705 19.5019C17.2856 19.8102 17.2206 20.376 17.5253 20.7655L18.9327 22.5644C19.1052 22.7849 19.3695 22.911 19.6473 22.9054C19.925 22.8999 20.1842 22.7633 20.3478 22.5361L22.9405 18.9381Z" fill="#00D395"/>
</svg>
