<svg width="40" height="40" viewBox="0 0 40 40" fill="none" xmlns="http://www.w3.org/2000/svg">
<rect width="40" height="40" rx="20" fill="#25FFBF" fill-opacity="0.1"/>
<path fill-rule="evenodd" clip-rule="evenodd" d="M9.78125 21.8996C9.78125 16.2608 14.3524 11.6897 19.9911 11.6897C25.6298 11.6897 30.2009 16.2608 30.2009 21.8996V22.9206C30.2009 23.4844 29.7438 23.9415 29.18 23.9415C28.6161 23.9415 28.159 23.4844 28.159 22.9206V21.8996C28.159 17.3886 24.5021 13.7317 19.9911 13.7317C15.4801 13.7317 11.8232 17.3886 11.8232 21.8996V22.9206C11.8232 23.4844 11.3661 23.9415 10.8022 23.9415C10.2384 23.9415 9.78125 23.4844 9.78125 22.9206V21.8996ZM23.6666 16.9988C24.1177 17.3371 24.2092 17.9771 23.8709 18.4282L21.8693 21.0969C21.9747 21.3433 22.033 21.6146 22.033 21.8996C22.033 23.0273 21.1189 23.9415 19.9911 23.9415C18.8633 23.9415 17.9491 23.0273 17.9491 21.8996C17.9491 20.7718 18.8633 19.8576 19.9911 19.8576C20.0738 19.8576 20.1554 19.8625 20.2355 19.8721L22.2372 17.203C22.5756 16.7519 23.2155 16.6605 23.6666 16.9988Z" fill="#00D395"/>
</svg>
