<svg width="40" height="40" viewBox="0 0 40 40" fill="none" xmlns="http://www.w3.org/2000/svg">
<rect width="40" height="40" rx="20" fill="#25FFBF" fill-opacity="0.1"/>
<g clip-path="url(#clip0_4369_1478)">
<path fill-rule="evenodd" clip-rule="evenodd" d="M19.9992 23.6156C19.2922 23.6156 18.7253 23.6633 18.2417 23.7342C16.248 24.0261 14.5755 26.0544 14.5755 28.1354C14.5755 28.6346 14.1708 29.0393 13.6715 29.0393C13.1723 29.0393 12.7676 28.6346 12.7676 28.1354C12.7676 25.7913 14.2365 23.4889 16.3464 22.4554C14.728 21.3093 13.6715 19.422 13.6715 17.2879C13.6715 13.7932 16.5045 10.9602 19.9992 10.9602C23.4939 10.9602 26.3269 13.7932 26.3269 17.2879C26.3269 19.422 25.2705 21.3093 23.652 22.4554C25.762 23.4889 27.2308 25.7913 27.2308 28.1354C27.2308 28.6346 26.8261 29.0393 26.3269 29.0393C25.8276 29.0393 25.4229 28.6346 25.4229 28.1354C25.4229 26.0544 23.7504 24.0261 21.7568 23.7342C21.2731 23.6633 20.7062 23.6156 19.9992 23.6156ZM19.9992 21.8077C17.503 21.8077 15.4794 19.7841 15.4794 17.2879C15.4794 14.7917 17.503 12.7681 19.9992 12.7681C22.4954 12.7681 24.519 14.7917 24.519 17.2879C24.519 19.7841 22.4954 21.8077 19.9992 21.8077Z" fill="#00D395"/>
</g>
<defs>
<clipPath id="clip0_4369_1478">
<rect width="16" height="19.5556" fill="white" transform="translate(12 10.2231)"/>
</clipPath>
</defs>
</svg>
