<svg width="24" height="25" viewBox="0 0 24 25" fill="none" xmlns="http://www.w3.org/2000/svg">
<path fill-rule="evenodd" clip-rule="evenodd" d="M3.56513 19.2C2.96255 18.8429 2.60547 18.1734 2.60547 17.4815V13.5759C2.60547 13.4197 2.6501 13.2858 2.71706 13.1519C2.94023 12.7502 3.47586 12.6163 3.85526 12.8394L12.6708 17.9725C13.1841 18.285 13.4965 18.8206 13.4965 19.4232V23.4627C13.4965 23.6412 13.4519 23.8421 13.3403 23.9983C13.0502 24.467 12.4253 24.6232 11.9566 24.3331L3.56513 19.2ZM16.7103 11.7682C17.2236 12.0806 17.536 12.6163 17.536 13.2188V21.4318C17.536 21.6773 17.4021 21.9004 17.2013 22.012L15.2596 23.1056C15.2373 23.1279 15.215 23.1279 15.1927 23.1279V18.5751C15.1927 17.9948 14.8802 17.4369 14.3669 17.1245L6.62266 12.4824V7.34928C6.62266 7.19306 6.6673 7.05915 6.73425 6.92524C6.95743 6.52353 7.49305 6.38962 7.87246 6.61279L16.7103 11.7682ZM20.5713 5.72008C21.0846 6.01022 21.397 6.56816 21.397 7.17074V19.1777C21.397 19.4232 21.2631 19.6464 21.0399 19.7579L19.2099 20.7399V12.3931C19.2099 11.8128 18.8974 11.2549 18.4064 10.9648L10.4836 6.18876V1.32349C10.4836 1.16727 10.5283 1.03336 10.5952 0.899454C10.8184 0.497735 11.354 0.363826 11.7334 0.587004L20.5713 5.72008Z" fill="#00D395"/>
</svg>
