<?xml version="1.0" encoding="utf-8"?>
<!-- Generator: Adobe Illustrator 25.2.1, SVG Export Plug-In . SVG Version: 6.00 Build 0)  -->
<svg version="1.1" id="Слой_1" xmlns="http://www.w3.org/2000/svg" xmlns:xlink="http://www.w3.org/1999/xlink" x="0px" y="0px"
	 viewBox="0 0 60 28" style="enable-background:new 0 0 60 28;" xml:space="preserve">
<style type="text/css">
	.st0{fill:#7B43FC;}
</style>
<g>
	<path class="st0" d="M60,20.4V25c0,1.7-1.3,3-3,3h-4.6L60,20.4z"/>
	<polygon class="st0" points="60,10.5 60,16.2 48.2,28 42.5,28 	"/>
	<path class="st0" d="M60,3v3.2L38.2,28h-5.7L59.4,1.2C59.8,1.7,60,2.3,60,3z"/>
	<polygon class="st0" points="56.3,0 28.3,28 22.7,28 50.7,0 	"/>
	<polygon class="st0" points="46.4,0 18.4,28 12.8,28 40.8,0 	"/>
	<path class="st0" d="M36.5,0l-28,28H3c0,0-0.1,0-0.1,0l28-28H36.5z"/>
	<path class="st0" d="M26.6,0L0.3,26.3C0.1,25.9,0,25.5,0,25v-4.1L20.9,0H26.6z"/>
	<polygon class="st0" points="16.7,0 0,16.7 0,11 11,0 	"/>
	<path class="st0" d="M6.8,0L0,6.8V3c0-1.7,1.3-3,3-3H6.8z"/>
</g>
</svg>
